<svg width="2666.6667" height="2666.6667" xmlns="http://www.w3.org/2000/svg" xmlns:svg="http://www.w3.org/2000/svg" version="1.1">
 <defs id="defs6">
  <clipPath clipPathUnits="userSpaceOnUse" id="clipPath16">
   <path d="m0,2000l2000,0l0,-2000l-2000,0l0,2000z" id="path14"/>
  </clipPath>
  <clipPath clipPathUnits="userSpaceOnUse" id="clipPath24">
   <path d="m89.79,1382.78l1820.42,0l0,-765.56l-1820.42,0l0,765.56z" id="path22"/>
  </clipPath>
  <pattern height="263.65" id="pattern1302" patternTransform="matrix(0.572104,0,0,0.572104,-1899.71,8199.84)" patternUnits="userSpaceOnUse" width="263.4" x="0" y="0">
   <g id="g28" transform="translate(186.224,-44.391)">
    <path d="m0,0l-42.12,42.12l42.12,42.11c7.35,7.35 18.41,8.72 27.15,4.11c-0.51,0.91 -0.96,1.85 -1.36,2.81c-2.95,1.2 -6.15,1.83 -9.43,1.83c-6.71,0 -13.02,-2.61 -17.76,-7.35l-43.51,-43.51l43.51,-43.52c4.74,-4.74 11.05,-7.35 17.76,-7.35c3.23,0 6.37,0.61 9.29,1.78c0.4,0.95 0.85,1.89 1.37,2.8c-8.71,-4.53 -19.71,-3.14 -27.02,4.17" fill="#4d3a30" fill-rule="nonzero" id="path26"/>
   </g>
   <g id="g32" transform="translate(217.541,-42.9948)">
    <path d="m0,0c-4,-4 -9.31,-6.2 -14.96,-6.2c-5.65,0 -10.97,2.2 -14.96,6.2l-39.04,39.04l-2.72,0l0,3.36l2.72,0l39.04,39.04c4,3.99 9.31,6.2 14.96,6.2c5.65,0 10.96,-2.21 14.96,-6.2c-1.66,1.66 -3.05,3.51 -4.17,5.5c-8.73,4.61 -19.8,3.24 -27.15,-4.1l-42.11,-42.12l42.11,-42.12c7.32,-7.31 18.31,-8.7 27.02,-4.17c1.09,1.91 2.44,3.71 4.07,5.34l0.23,0.23z" fill="#4d3a30" fill-rule="nonzero" id="path30"/>
   </g>
   <g id="g36" transform="translate(218.9375,72.5533)">
    <path d="m0,0l40.45,40.45l0,0.23l0.23,0l1.44,1.44l1.43,-1.44l0.26,0l0,-0.26l40.42,-40.42c7.35,-7.35 8.72,-18.41 4.11,-27.15c0.91,0.51 1.85,0.96 2.81,1.36c1.2,2.95 1.83,6.15 1.83,9.43c0,6.71 -2.61,13.01 -7.35,17.76l-43.51,43.51l-43.52,-43.51c-4.74,-4.75 -7.35,-11.05 -7.35,-17.76c0,-3.28 0.63,-6.48 1.83,-9.43c0.96,-0.39 1.9,-0.85 2.81,-1.36c-4.61,8.74 -3.24,19.8 4.11,27.15" fill="#4d3a30" fill-rule="nonzero" id="path34"/>
   </g>
   <g id="g40" transform="translate(226.2914,29.6933)">
    <path d="m0,0l-8.75,8.75l8.75,-8.75z" fill="#4d3a30" fill-rule="nonzero" id="path38"/>
   </g>
   <g id="g44" transform="translate(218.9375,39.8398)">
    <path d="m0,0c-1.68,1.68 -3.05,3.56 -4.11,5.57c-0.91,0.51 -1.85,0.96 -2.81,1.35c0.39,-0.96 0.84,-1.9 1.35,-2.81c2.01,-1.06 3.89,-2.43 5.57,-4.11" fill="#4d3a30" fill-rule="nonzero" id="path42"/>
   </g>
   <g id="g48" transform="translate(226.2914,29.6933)">
    <path d="m0,0c0.45,0.48 0.91,0.95 1.38,1.41l-8.73,8.74c-1.69,1.68 -3.57,3.05 -5.57,4.11c1.12,-2 2.51,-3.85 4.17,-5.51l8.75,-8.75z" fill="#4d3a30" fill-rule="nonzero" id="path46"/>
   </g>
   <g id="g52" transform="translate(214.137,56.1963)">
    <path d="m0,0c0,5.65 2.2,10.96 6.2,14.96l39.05,39.05l0,2.79l-40.45,-40.44c-7.35,-7.35 -8.72,-18.42 -4.11,-27.15c1.99,-1.12 3.85,-2.51 5.51,-4.17c-4,4 -6.2,9.31 -6.2,14.96" fill="#4d3a30" fill-rule="nonzero" id="path50"/>
   </g>
   <g id="g56" transform="translate(261.0529,114.6686)">
    <path d="m0,0l-1.43,-1.43l2.86,0l-1.43,1.43z" fill="#4d3a30" fill-rule="nonzero" id="path54"/>
   </g>
   <g id="g60" transform="translate(301.772,71.1568)">
    <path d="m0,0c4,-4 6.2,-9.31 6.2,-14.96c0,-5.65 -2.2,-10.97 -6.2,-14.96c1.66,1.66 3.51,3.05 5.51,4.17c4.61,8.73 3.24,19.8 -4.11,27.15l-40.42,40.41l0,-2.79l39.02,-39.02z" fill="#4d3a30" fill-rule="nonzero" id="path58"/>
   </g>
   <g id="g64" transform="translate(220.3337,41.2361)">
    <path d="m0,0l8.78,-8.78l-8.78,8.78z" fill="#4d3a30" fill-rule="nonzero" id="path62"/>
   </g>
   <g id="g68" transform="translate(229.1158,32.4542)">
    <path d="m0,0l-8.78,8.78c-1.66,1.66 -3.51,3.05 -5.51,4.17c1.06,-2 2.43,-3.88 4.11,-5.56l8.74,-8.74c0.47,0.46 0.95,0.91 1.44,1.35" fill="#4d3a30" fill-rule="nonzero" id="path66"/>
   </g>
   <g id="g72" transform="translate(226.5089,-0.5931)">
    <path d="m0,0l0,-1.8c2.24,0.6 4.41,1.35 6.51,2.25c-0.47,0.26 -0.94,0.53 -1.42,0.8l0.53,0.96c0.72,-0.4 1.43,-0.81 2.12,-1.22c2.9,1.34 5.65,2.95 8.21,4.8c-0.35,0.38 -0.7,0.76 -1.07,1.13l0.79,0.76c0.4,-0.41 0.78,-0.82 1.16,-1.24c1.29,0.98 2.51,2.01 3.69,3.1l-2.32,2.33c-7.24,-6.67 -16.64,-11.02 -27.02,-11.87l8.82,0z" fill="#4d3a30" fill-rule="nonzero" id="path70"/>
   </g>
   <g id="g76" transform="translate(251.1171,13.2102)">
    <path d="m0,0c-0.28,0.63 -0.56,1.26 -0.86,1.87l0.99,0.47c0.22,-0.46 0.44,-0.93 0.65,-1.4c3.81,4.73 6.76,10.17 8.61,16.1l0,0.61l-1.12,0l0,12.42c-0.35,-11.23 -4.79,-21.45 -11.89,-29.21l2.32,-2.32c0.44,0.48 0.88,0.96 1.3,1.46" fill="#4d3a30" fill-rule="nonzero" id="path74"/>
   </g>
   <g id="g80" transform="translate(247.0328,8.952)">
    <path d="m0,0l-2.32,2.32c0,0 0,0 0,0l2.32,-2.32z" fill="#4d3a30" fill-rule="nonzero" id="path78"/>
   </g>
   <g id="g84" transform="translate(248.4569,10.3204)">
    <path d="m0,0l-2.32,2.32c-0.47,-0.47 -0.94,-0.92 -1.43,-1.37l2.33,-2.32c0.48,0.45 0.95,0.9 1.42,1.37" fill="#4d3a30" fill-rule="nonzero" id="path82"/>
   </g>
   <g id="g88" transform="translate(249.8205,11.7497)">
    <path d="m0,0l-2.32,2.32l2.32,-2.32z" fill="#4d3a30" fill-rule="nonzero" id="path86"/>
   </g>
   <g id="g92" transform="translate(249.8205,11.7497)">
    <path d="m0,0l-2.32,2.32c-0.44,-0.49 -0.9,-0.96 -1.36,-1.43l2.32,-2.32c0.46,0.47 0.91,0.94 1.36,1.43" fill="#4d3a30" fill-rule="nonzero" id="path90"/>
   </g>
   <g id="g96" transform="translate(262.7502,30.8646)">
    <path d="m0,0l-1.15,0l0,-0.62c1.85,-5.92 4.8,-11.37 8.61,-16.09c0.21,0.47 0.42,0.94 0.65,1.4l0.98,-0.47c-0.29,-0.62 -0.57,-1.24 -0.85,-1.87c0.42,-0.5 0.85,-0.99 1.3,-1.46l2.32,2.32c-6.93,7.57 -11.33,17.5 -11.86,28.42l0,-11.63z" fill="#4d3a30" fill-rule="nonzero" id="path94"/>
   </g>
   <g id="g100" transform="translate(261.0527,30.8646)">
    <path d="m0,0l0,-30.35l0,0l0.55,0.55l0,29.18c-0.07,0.21 -0.12,0.41 -0.18,0.62l-0.37,0z" fill="#4d3a30" fill-rule="nonzero" id="path98"/>
   </g>
   <g id="g104" transform="translate(261.053,0.5172)">
    <path d="m0,0l0,0l0,0z" fill="#4d3a30" fill-rule="nonzero" id="path102"/>
   </g>
   <g id="g108" transform="translate(261.053,0.5172)">
    <path d="m0,0l0,0l0,0z" fill="#4d3a30" fill-rule="nonzero" id="path106"/>
   </g>
   <g id="g112" transform="translate(261.6003,-0.0301)">
    <path d="m0,0l0,1.09l-0.55,-0.54l0.55,-0.55z" fill="#4d3a30" fill-rule="nonzero" id="path110"/>
   </g>
   <g id="g116" transform="translate(261.0527,0.0608)">
    <path d="m0,0l0.55,-0.55l0,0.46l-0.55,0.55l0,0l0,-0.46z" fill="#4d3a30" fill-rule="nonzero" id="path114"/>
   </g>
   <g id="g120" transform="translate(261.0529,-2.2757)">
    <path d="m0,0l0.55,0.55l0,1.24l-0.55,0.55l0,-2.34z" fill="#4d3a30" fill-rule="nonzero" id="path118"/>
   </g>
   <g id="g124" transform="translate(261.0527,0.5175)">
    <path d="m0,0l0,30.35l-0.37,0c-0.06,-0.21 -0.11,-0.42 -0.18,-0.62l0,-29.18l0.55,-0.55z" fill="#4d3a30" fill-rule="nonzero" id="path122"/>
   </g>
   <g id="g128" transform="translate(260.5051,1.0652)">
    <path d="m0,0l0.55,-0.55l-0.55,0.55z" fill="#4d3a30" fill-rule="nonzero" id="path126"/>
   </g>
   <g id="g132" transform="translate(260.8247,0.2888)">
    <path d="m0,0l0.23,0.23l0,0l-0.55,0.55l0,-1.1l0.32,0.32z" fill="#4d3a30" fill-rule="nonzero" id="path130"/>
   </g>
   <g id="g136" transform="translate(261.0527,0.5169)">
    <path d="m0,0l-0.23,-0.23l0.23,-0.23l0,0.46z" fill="#4d3a30" fill-rule="nonzero" id="path134"/>
   </g>
   <g id="g140" transform="translate(261.0527,-2.2755)">
    <path d="m0,0l0,2.34l-0.23,0.22l-0.32,-0.31l0,-1.7l0.55,-0.55z" fill="#4d3a30" fill-rule="nonzero" id="path138"/>
   </g>
   <g id="g144" transform="translate(260.5051,30.8646)">
    <path d="m0,0l0,-0.62c0.06,0.21 0.12,0.41 0.18,0.62l-0.18,0z" fill="#4d3a30" fill-rule="nonzero" id="path142"/>
   </g>
   <g id="g148" transform="translate(261.6003,30.2476)">
    <path d="m0,0l0,0.62l-0.18,0c0.06,-0.21 0.12,-0.42 0.18,-0.62" fill="#4d3a30" fill-rule="nonzero" id="path146"/>
   </g>
   <g id="g152" transform="translate(257.0048,-1.0199)">
    <path d="m0,0l-1.52,1.52c0.4,-1.48 0.76,-2.97 1.1,-4.45l0.91,0.9c-0.16,0.68 -0.32,1.36 -0.49,2.03" fill="#4d3a30" fill-rule="nonzero" id="path150"/>
   </g>
   <g id="g156" transform="translate(254.72,6.8502)">
    <path d="m0,0c-0.84,2.5 -1.77,4.95 -2.82,7.3c-0.26,-0.31 -0.52,-0.63 -0.78,-0.94c0.65,-1.49 1.26,-3.03 1.83,-4.59l1.77,-1.77z" fill="#4d3a30" fill-rule="nonzero" id="path154"/>
   </g>
   <g id="g160" transform="translate(257.0048,-1.0198)">
    <path d="m0,0l-1.52,1.52l0,0l1.52,-1.52z" fill="#4d3a30" fill-rule="nonzero" id="path158"/>
   </g>
   <g id="g164" transform="translate(255.9814,2.7959)">
    <path d="m0,0l-1.62,1.62c0.4,-1.3 0.78,-2.6 1.13,-3.92l1.51,-1.52c-0.32,1.28 -0.66,2.55 -1.02,3.82" fill="#4d3a30" fill-rule="nonzero" id="path162"/>
   </g>
   <g id="g168" transform="translate(254.72,6.8502)">
    <path d="m0,0l-1.77,1.77l1.77,-1.77z" fill="#4d3a30" fill-rule="nonzero" id="path166"/>
   </g>
   <g id="g172" transform="translate(254.72,6.8501)">
    <path d="m0,0l-1.77,1.77c0.5,-1.38 0.97,-2.79 1.41,-4.2l1.62,-1.62c-0.39,1.36 -0.81,2.71 -1.26,4.05" fill="#4d3a30" fill-rule="nonzero" id="path170"/>
   </g>
   <g id="g176" transform="translate(251.2505,15.5554)">
    <path d="m0,0l-0.99,-0.47c0.3,-0.62 0.58,-1.24 0.86,-1.88c0.26,0.32 0.52,0.63 0.78,0.95c-0.21,0.47 -0.43,0.94 -0.65,1.4" fill="#4d3a30" fill-rule="nonzero" id="path174"/>
   </g>
   <g id="g180" transform="translate(252.8891,-7.6467)">
    <path d="m0,0c-2.44,4.54 -5.56,9.13 -9.55,13.5c-0.29,-0.22 -0.58,-0.44 -0.88,-0.66c4.05,-4.41 7.18,-9.06 9.62,-13.65l0.81,0.81z" fill="#4d3a30" fill-rule="nonzero" id="path178"/>
   </g>
   <g id="g184" transform="translate(242.1789,7.092)">
    <path d="m0,0l-0.79,-0.76c0.36,-0.38 0.72,-0.76 1.07,-1.14c0.3,0.22 0.59,0.44 0.88,0.66c-0.38,0.41 -0.76,0.83 -1.16,1.24" fill="#4d3a30" fill-rule="nonzero" id="path182"/>
   </g>
   <g id="g188" transform="translate(248.3689,-12.1669)">
    <path d="m0,0l0.78,0.78c-3.71,3.97 -8.55,8.03 -14.9,11.78c-0.41,-0.18 -0.82,-0.36 -1.23,-0.54c6.6,-3.82 11.58,-7.96 15.35,-12.02" fill="#4d3a30" fill-rule="nonzero" id="path186"/>
   </g>
   <g id="g192" transform="translate(232.1254,1.6141)">
    <path d="m0,0l-0.53,-0.96c0.48,-0.27 0.96,-0.53 1.42,-0.8c0.42,0.17 0.83,0.36 1.23,0.54c-0.69,0.41 -1.39,0.82 -2.12,1.22" fill="#4d3a30" fill-rule="nonzero" id="path190"/>
   </g>
   <g id="g196" transform="translate(259.4068,44.4701)">
    <path d="m0,0c0,0.08 0,0.16 0,0.24c0,-0.08 0.01,-0.16 0.01,-0.24c0.36,0.01 0.72,0.01 1.09,0.01c0.73,0 1.46,-0.01 2.18,-0.05c0,0.09 0.01,0.19 0.01,0.28c0,-0.09 0,-0.19 0,-0.28c0.02,0 0.04,0 0.05,0l0,65.75l-1.69,1.7l-1.67,-1.67l0,-65.74c0.01,0 0.01,0 0.02,0" fill="#4d3a30" fill-rule="nonzero" id="path194"/>
   </g>
   <g id="g200" transform="translate(259.3853,113.2351)">
    <path d="m0,0l0,-0.23l0.23,0.23l-0.23,0z" fill="#4d3a30" fill-rule="nonzero" id="path198"/>
   </g>
   <g id="g204" transform="translate(262.7503,113.2351)">
    <path d="m0,0l-0.26,0l0.26,-0.26l0,0.26z" fill="#4d3a30" fill-rule="nonzero" id="path202"/>
   </g>
   <g id="g208" transform="translate(261.0531,111.8762)">
    <path d="m0,0l1.7,-1.7l0,2.79l-0.27,0.27l-2.86,0l-0.24,-0.24l0,-2.79l1.67,1.67z" fill="#4d3a30" fill-rule="nonzero" id="path206"/>
   </g>
   <g id="g212" transform="translate(262.7502,44.4293)">
    <path d="m0,0c-0.02,0 -0.03,0 -0.05,0c0,-0.65 0.02,-1.29 0.05,-1.93l0,1.93z" fill="#4d3a30" fill-rule="nonzero" id="path210"/>
   </g>
   <g id="g216" transform="translate(261.0677,32.2096)">
    <path d="m0,0c1.04,3.91 1.6,8 1.62,12.22c-0.72,0.03 -1.45,0.05 -2.18,0.05c-0.37,0 -0.73,0 -1.09,-0.01c0.02,-4.23 0.58,-8.34 1.62,-12.26l0.03,0z" fill="#4d3a30" fill-rule="nonzero" id="path214"/>
   </g>
   <g id="g220" transform="translate(259.4068,44.4701)">
    <path d="m0,0c-0.01,0 -0.01,0 -0.02,0l0,-1.19c0.01,0.4 0.02,0.79 0.02,1.19" fill="#4d3a30" fill-rule="nonzero" id="path218"/>
   </g>
   <g id="g224" transform="translate(259.4099,44.7109)">
    <path d="m0,0c0,-0.08 0,-0.16 0,-0.24l0,0c0,0.08 0,0.16 0,0.24" fill="#4d3a30" fill-rule="nonzero" id="path222"/>
   </g>
   <g id="g228" transform="translate(259.3853,30.8646)">
    <path d="m0,0l1.12,0l0,1.34l0.53,0c-1.04,3.92 -1.6,8.03 -1.62,12.27l-0.01,0c0,-0.4 -0.01,-0.8 -0.02,-1.19l0,-12.42z" fill="#4d3a30" fill-rule="nonzero" id="path226"/>
   </g>
   <g id="g232" transform="translate(262.6956,44.7109)">
    <path d="m0,0c0,-0.09 0,-0.19 -0.01,-0.28c0.01,0 0.01,0 0.01,0c0,0.09 0,0.19 0,0.28" fill="#4d3a30" fill-rule="nonzero" id="path230"/>
   </g>
   <g id="g236" transform="translate(261.6003,32.2096)">
    <path d="m0,0l0,-1.34l1.15,0l0,11.63c-0.03,0.64 -0.05,1.28 -0.05,1.93c0,0 -0.01,0 -0.01,0c-0.02,-4.22 -0.59,-8.32 -1.62,-12.22l0.53,0z" fill="#4d3a30" fill-rule="nonzero" id="path234"/>
   </g>
   <g id="g240" transform="translate(261.423,30.8646)">
    <path d="m0,0c-0.13,0.43 -0.26,0.86 -0.37,1.29l0,-1.29l0.37,0z" fill="#4d3a30" fill-rule="nonzero" id="path238"/>
   </g>
   <g id="g244" transform="translate(261.0527,30.8646)">
    <path d="m0,0l0,1.29l0,0c-0.12,-0.43 -0.24,-0.86 -0.37,-1.29l0.37,0z" fill="#4d3a30" fill-rule="nonzero" id="path242"/>
   </g>
   <g id="g248" transform="translate(261.0527,32.1541)">
    <path d="m0,0c-0.01,0.02 -0.01,0.04 -0.01,0.06l-0.54,0l0,-1.35l0.18,0c0.13,0.43 0.25,0.86 0.37,1.29" fill="#4d3a30" fill-rule="nonzero" id="path246"/>
   </g>
   <g id="g252" transform="translate(261.0677,32.2096)">
    <path d="m0,0c-0.01,-0.02 -0.01,-0.04 -0.01,-0.06l0,0l0,0c0.11,-0.43 0.24,-0.86 0.36,-1.29l0.18,0l0,1.35l-0.53,0z" fill="#4d3a30" fill-rule="nonzero" id="path250"/>
   </g>
   <g id="g256" transform="translate(261.0527,32.1543)">
    <path d="m0,0l0,0.06l0,-0.06c0.01,0.02 0.01,0.04 0.01,0.06l-0.02,0c0,-0.02 0,-0.04 0.01,-0.06z" fill="#4d3a30" fill-rule="nonzero" id="path254"/>
   </g>
   <g id="g260" transform="translate(73.8742,41.2361)">
    <path d="m0,0c-4.74,4.74 -11.05,7.35 -17.75,7.35c-3.29,0 -6.48,-0.63 -9.44,-1.83c-0.39,-0.96 -0.85,-1.9 -1.36,-2.81c8.74,4.61 19.8,3.24 27.15,-4.11l42.12,-42.11l-42.12,-42.12c-7.5,-7.5 -18.86,-8.76 -27.68,-3.81c0.56,-0.95 1.05,-1.93 1.48,-2.93c3.07,-1.31 6.4,-2.01 9.85,-2.01c6.7,0 13.01,2.61 17.75,7.36l43.51,43.51l-43.51,43.51z" fill="#4d3a30" fill-rule="nonzero" id="path258"/>
   </g>
   <g id="g264" transform="translate(56.121,44.6402)">
    <path d="m0,0c5.65,0 10.96,-2.2 14.96,-6.2l39.11,-39.11l2.64,0l0,-3.36l-2.79,0l-38.96,-38.97c-4,-3.99 -9.31,-6.19 -14.96,-6.19c-5.65,0 -10.96,2.2 -14.96,6.2l-9.12,9.11c-0.07,-0.08 -0.14,-0.16 -0.21,-0.24l9.1,-9.1c1.53,-1.53 2.82,-3.21 3.87,-4.98c8.81,-4.96 20.18,-3.69 27.68,3.81l42.11,42.11l-42.11,42.12c-7.35,7.35 -18.42,8.72 -27.15,4.11c-1.12,-1.99 -2.51,-3.85 -4.17,-5.51c4,4 9.31,6.2 14.96,6.2" fill="#4d3a30" fill-rule="nonzero" id="path262"/>
   </g>
   <g id="g268" transform="translate(-44.4663,72.5533)">
    <path d="m0,0l40.45,40.45l0,0.23l0.23,0l1.44,1.44l1.43,-1.44l0.26,0l0,-0.26l40.42,-40.42c7.35,-7.35 8.72,-18.41 4.11,-27.15c0.91,0.51 1.85,0.96 2.81,1.36c1.2,2.95 1.83,6.15 1.83,9.43c0,6.71 -2.61,13.01 -7.35,17.76l-43.51,43.51l-43.52,-43.51c-4.74,-4.75 -7.35,-11.05 -7.35,-17.76c0,-3.28 0.63,-6.48 1.83,-9.43c0.96,-0.39 1.9,-0.85 2.81,-1.36c-4.61,8.74 -3.24,19.8 4.11,27.15" fill="#4d3a30" fill-rule="nonzero" id="path266"/>
   </g>
   <g id="g272" transform="translate(39.7645,39.8398)">
    <path d="m0,0c1.68,1.68 3.56,3.05 5.57,4.11c0.51,0.91 0.96,1.85 1.35,2.81c-0.96,-0.39 -1.9,-0.84 -2.81,-1.35c-1.06,-2.01 -2.43,-3.89 -4.11,-5.57" fill="#4d3a30" fill-rule="nonzero" id="path270"/>
   </g>
   <g id="g276" transform="translate(30.4817,30.5571)">
    <path d="m0,0c0.46,-0.47 0.92,-0.94 1.36,-1.43l9.32,9.32c1.66,1.66 3.05,3.51 4.17,5.5c-2,-1.05 -3.88,-2.42 -5.57,-4.11l-9.28,-9.28z" fill="#4d3a30" fill-rule="nonzero" id="path274"/>
   </g>
   <g id="g280" transform="translate(38.3682,71.1568)">
    <path d="m0,0c4,-4 6.2,-9.31 6.2,-14.96c0,-5.65 -2.2,-10.97 -6.2,-14.96c1.66,1.66 3.51,3.05 5.51,4.17c4.61,8.73 3.24,19.8 -4.11,27.15l-40.42,40.41l0,-2.79l39.02,-39.02z" fill="#4d3a30" fill-rule="nonzero" id="path278"/>
   </g>
   <g id="g284" transform="translate(29.0624,31.9303)">
    <path d="m0,0c0.48,-0.45 0.96,-0.91 1.42,-1.37l9.28,9.28c1.69,1.68 3.05,3.56 4.11,5.56c-1.99,-1.11 -3.85,-2.51 -5.5,-4.16l-9.31,-9.31z" fill="#4d3a30" fill-rule="nonzero" id="path282"/>
   </g>
   <g id="g288" transform="translate(15.3605,5.8502)">
    <path d="m0,0c0.38,0.42 0.77,0.83 1.16,1.24l0.79,-0.76c-0.36,-0.38 -0.72,-0.75 -1.07,-1.13c2.57,-1.86 5.31,-3.47 8.21,-4.8c0.7,0.41 1.4,0.81 2.13,1.21l0.53,-0.96c-0.49,-0.26 -0.96,-0.53 -1.43,-0.8c2.1,-0.89 4.28,-1.64 6.51,-2.24l0,1.72l9.91,0c-10.81,0.63 -20.62,5.05 -28.11,11.94l-2.32,-2.32c1.18,-1.09 2.41,-2.13 3.69,-3.1" fill="#4d3a30" fill-rule="nonzero" id="path286"/>
   </g>
   <g id="g292" transform="translate(-0.6535,30.8646)">
    <path d="m0,0l-1.15,0l0,-0.62c1.85,-5.92 4.8,-11.37 8.61,-16.09c0.21,0.47 0.42,0.94 0.65,1.4l0.98,-0.47c-0.29,-0.62 -0.57,-1.24 -0.85,-1.87c0.42,-0.5 0.85,-0.99 1.3,-1.46l2.32,2.32c-6.93,7.57 -11.33,17.5 -11.86,28.42l0,-11.63z" fill="#4d3a30" fill-rule="nonzero" id="path290"/>
   </g>
   <g id="g296" transform="translate(11.6691,8.9517)">
    <path d="m0,0l2.32,2.32c-0.48,0.45 -0.96,0.9 -1.42,1.37l-2.32,-2.32c0.46,-0.47 0.94,-0.92 1.42,-1.37" fill="#4d3a30" fill-rule="nonzero" id="path294"/>
   </g>
   <g id="g300" transform="translate(10.2449,10.3202)">
    <path d="m0,0l2.32,2.32c-0.47,0.47 -0.92,0.94 -1.36,1.43l-2.32,-2.32c0.44,-0.49 0.89,-0.96 1.36,-1.43" fill="#4d3a30" fill-rule="nonzero" id="path298"/>
   </g>
   <g id="g304" transform="translate(1.2109,-3.0444)">
    <path d="m0,0l0.91,-0.91c0.33,1.48 0.7,2.97 1.09,4.45l-1.51,-1.52c-0.17,-0.67 -0.33,-1.35 -0.49,-2.02" fill="#4d3a30" fill-rule="nonzero" id="path302"/>
   </g>
   <g id="g308" transform="translate(5.7527,8.6206)">
    <path d="m0,0c0.57,1.56 1.18,3.1 1.83,4.59c-0.26,0.31 -0.52,0.62 -0.78,0.94c-1.05,-2.35 -1.98,-4.8 -2.82,-7.3l1.77,1.77z" fill="#4d3a30" fill-rule="nonzero" id="path306"/>
   </g>
   <g id="g312" transform="translate(1.6967,-1.0207)">
    <path d="m0,0l1.52,1.52c0.35,1.31 0.72,2.62 1.12,3.92l-1.62,-1.62c-0.36,-1.27 -0.7,-2.54 -1.02,-3.82" fill="#4d3a30" fill-rule="nonzero" id="path310"/>
   </g>
   <g id="g316" transform="translate(4.3403,4.4156)">
    <path d="m0,0c0.44,1.42 0.91,2.82 1.41,4.21l-1.77,-1.78c-0.45,-1.34 -0.87,-2.69 -1.26,-4.05l1.62,1.62z" fill="#4d3a30" fill-rule="nonzero" id="path314"/>
   </g>
   <g id="g320" transform="translate(8.44,15.084)">
    <path d="m0,0l-0.99,0.47c-0.22,-0.46 -0.43,-0.93 -0.65,-1.4c0.26,-0.32 0.52,-0.63 0.78,-0.94c0.28,0.63 0.57,1.25 0.86,1.87" fill="#4d3a30" fill-rule="nonzero" id="path318"/>
   </g>
   <g id="g324" transform="translate(6.6202,-8.4538)">
    <path d="m0,0c2.44,4.59 5.58,9.24 9.63,13.65c-0.3,0.21 -0.6,0.43 -0.89,0.65c-3.99,-4.36 -7.11,-8.95 -9.55,-13.49l0.81,-0.81z" fill="#4d3a30" fill-rule="nonzero" id="path322"/>
   </g>
   <g id="g328" transform="translate(17.3116,6.3322)">
    <path d="m0,0l-0.79,0.76c-0.4,-0.41 -0.78,-0.83 -1.16,-1.24c0.29,-0.22 0.59,-0.44 0.88,-0.66c0.35,0.38 0.71,0.76 1.07,1.14" fill="#4d3a30" fill-rule="nonzero" id="path326"/>
   </g>
   <g id="g332" transform="translate(9.558,-11.3916)">
    <path d="m0,0l0.78,-0.78c3.76,4.06 8.74,8.21 15.35,12.02c-0.42,0.18 -0.83,0.36 -1.23,0.55c-6.35,-3.75 -11.2,-7.81 -14.9,-11.79" fill="#4d3a30" fill-rule="nonzero" id="path330"/>
   </g>
   <g id="g336" transform="translate(27.1051,0.6548)">
    <path d="m0,0l-0.53,0.96c-0.73,-0.4 -1.43,-0.81 -2.12,-1.22c0.41,-0.18 0.82,-0.37 1.23,-0.54c0.46,0.27 0.94,0.53 1.42,0.8" fill="#4d3a30" fill-rule="nonzero" id="path334"/>
   </g>
   <g id="g340" transform="translate(33.272,116.3229)">
    <path d="m0,0l25.06,-25.07c3.28,-3.27 7.37,-5.24 11.63,-5.91c0.5,-0.08 1,-0.14 1.5,-0.18c0.5,-0.05 1,-0.07 1.5,-0.08c5.52,-0.08 11.07,1.97 15.27,6.17l21.27,21.27c-2.26,2.12 -4.68,4.07 -7.23,5.83l-17.22,-17.22c-3.24,-3.23 -7.52,-5.04 -12.09,-5.1c-0.08,0 -0.17,-0.01 -0.25,-0.01c-0.42,0 -0.84,0.02 -1.25,0.05c-0.5,0.04 -1,0.09 -1.5,0.17c-3.61,0.57 -6.95,2.26 -9.58,4.89l-14.27,14.27c-1.26,-0.13 -2.54,-0.2 -3.84,-0.2c-3.13,0 -6.17,0.39 -9,1.12m196.86,31.23l-25.06,25.07c-3.28,3.27 -7.37,5.24 -11.63,5.92c-0.5,0.07 -1,0.14 -1.5,0.18c-0.5,0.04 -1,0.07 -1.5,0.07c-5.52,0.09 -11.06,-1.97 -15.27,-6.17l-21.74,-21.74c2.28,-2.11 4.71,-4.04 7.27,-5.79l17.65,17.65c3.34,3.34 7.71,5.03 12.09,5.1c0.5,0 1,-0.01 1.5,-0.05c0.5,-0.03 1,-0.09 1.5,-0.17c3.51,-0.56 6.88,-2.18 9.58,-4.88l14.27,-14.26c1.26,0.13 2.54,0.2 3.84,0.2c3.13,0 6.17,-0.39 9,-1.13m11.87,-15.61c0,6.93 -9.56,12.79 -20.87,12.79c-0.03,0 -0.06,0 -0.09,0c-0.64,0 -1.26,-0.02 -1.88,-0.06c-0.61,-0.04 -1.2,-0.09 -1.79,-0.16c-6.08,-0.71 -11.33,-3.11 -14.35,-6.33c1.8,0.87 4,1.38 6.37,1.38c6.13,0 11.1,-3.41 11.1,-7.62c0,-4.21 -4.97,-7.63 -11.1,-7.63c-2.37,0 -4.57,0.52 -6.37,1.39c2.85,-3.05 7.69,-5.35 13.35,-6.2c0.57,-0.09 1.14,-0.16 1.73,-0.21c0.6,-0.06 1.21,-0.1 1.82,-0.12c0.4,-0.02 0.81,-0.03 1.21,-0.03c11.31,0 20.87,5.86 20.87,12.8m-78.13,-11.3l16.42,-16.43c2.81,-2.8 6.47,-4.23 10.15,-4.29c0.5,-0.01 1,0.01 1.5,0.05c0.5,0.04 1,0.11 1.5,0.2c2.8,0.53 5.48,1.88 7.64,4.04l11.9,11.9c-3.36,0.78 -6.46,2.04 -9.07,3.73c-3.99,2.58 -6.52,5.91 -7.32,9.57c-0.26,0 -0.53,0.01 -0.8,0.01c-0.78,0 -1.57,-0.02 -2.35,-0.05c-0.5,-0.02 -1,-0.04 -1.5,-0.07c-0.5,-0.03 -1,-0.07 -1.5,-0.11c-9.64,-0.82 -18.67,-3.84 -26.57,-8.55m-3.64,20.1l-8.23,-8.23l9.03,-9.04c6.34,3.91 13.39,6.79 20.9,8.39c-7.83,1.66 -15.15,4.71 -21.7,8.88m43.68,3.29c2.86,1.85 6.28,3.18 10.01,3.94l-12.84,12.83c-2.16,2.16 -4.84,3.51 -7.64,4.04c-0.5,0.09 -1,0.16 -1.5,0.2c-0.5,0.05 -1,0.06 -1.5,0.05c-3.68,-0.06 -7.34,-1.49 -10.15,-4.29l-17.23,-17.23c8.1,-5 17.41,-8.2 27.38,-9.04c0.5,-0.05 1,-0.08 1.5,-0.11c0.5,-0.03 1,-0.06 1.5,-0.08c0.78,-0.03 1.57,-0.05 2.35,-0.05c0.26,0 0.52,0.02 0.77,0.02c0.76,3.72 3.3,7.11 7.35,9.72m-53.15,-28.36c2.47,2.29 5.11,4.39 7.91,6.28l-10.55,10.56l9.79,9.78c-2.55,1.78 -4.97,3.73 -7.24,5.83l-16.18,-16.18l16.27,-16.27zm-28.18,45.12l8.55,-8.55l8.75,8.75c-3.89,6.04 -6.82,12.75 -8.59,19.92c-1.79,-7.25 -4.76,-14.03 -8.71,-20.12m40.91,32.77c-0.53,2.93 -1.92,5.62 -4.07,7.76l-11.89,11.9c-0.78,-3.37 -2.04,-6.46 -3.73,-9.07c-2.81,-4.35 -6.51,-6.95 -10.54,-7.49c0,-1.04 0.03,-2.07 0.08,-3.1c0.03,-0.5 0.06,-1 0.1,-1.5c0.03,-0.5 0.08,-1 0.13,-1.49c0.97,-9.75 4.2,-18.84 9.14,-26.75l16.71,16.71c2.69,2.69 4.21,6.24 4.3,10.04c0,0.12 0.01,0.24 0.01,0.36c0,0.38 -0.02,0.76 -0.05,1.13c-0.04,0.51 -0.1,1.01 -0.19,1.5m-64.95,-2.99c0.09,-3.8 1.61,-7.35 4.3,-10.04l16.91,-16.92c5.02,7.96 8.29,17.13 9.27,26.96c0.05,0.49 0.09,0.99 0.13,1.49c0.04,0.5 0.07,1 0.09,1.5c0.06,1.07 0.09,2.15 0.09,3.24c-3.72,0.76 -7.11,3.3 -9.73,7.35c-1.85,2.85 -3.18,6.28 -3.93,10l-12.83,-12.83c-2.15,-2.14 -3.54,-4.83 -4.07,-7.76c-0.09,-0.49 -0.15,-0.99 -0.19,-1.5c-0.03,-0.37 -0.05,-0.75 -0.05,-1.13c0,-0.13 0.01,-0.24 0.01,-0.37m33.16,51.68c-6.93,0 -12.79,-9.56 -12.79,-20.87c0,-0.03 0,-0.06 0,-0.1c0,-0.63 0.02,-1.26 0.06,-1.88c0.03,-0.6 0.09,-1.19 0.16,-1.78c0.71,-6.08 3.1,-11.33 6.33,-14.36c-0.87,1.81 -1.38,4 -1.38,6.37c0,6.13 3.41,11.1 7.62,11.1c4.21,0 7.62,-4.97 7.62,-11.1c0,-2.37 -0.51,-4.56 -1.38,-6.37c3.05,2.86 5.35,7.7 6.2,13.36c0.08,0.57 0.15,1.14 0.21,1.72c0.06,0.61 0.09,1.21 0.12,1.83c0.01,0.4 0.02,0.8 0.02,1.21c0,11.31 -5.86,20.87 -12.79,20.87m-16.57,-90.94l16.57,-16.57l0,0l0,0l16.16,16.15c-2.33,2.43 -4.47,5.03 -6.42,7.79l-10.31,-10.31l-10.12,10.12c-1.79,-2.53 -3.76,-4.93 -5.88,-7.18c0,0 0,0 0,0m-10.06,-30.15c2.53,-1.79 4.93,-3.75 7.18,-5.87l16.66,16.66l-16.57,16.57c-2.45,-2.31 -5.07,-4.43 -7.85,-6.35l10.79,-10.79l-10.21,-10.22zm-2.32,1.57l8.65,8.65l-9.25,9.25c-6.49,-4.11 -13.74,-7.11 -21.49,-8.76c7.98,-1.7 15.44,-4.84 22.09,-9.14m-53.27,-6.81l12.84,-12.83c2.11,-2.12 4.76,-3.51 7.64,-4.05c0.49,-0.1 0.99,-0.16 1.5,-0.21c0.41,-0.03 0.83,-0.05 1.25,-0.05c0.08,0 0.17,0 0.25,0c3.83,0.07 7.43,1.59 10.15,4.3l16.82,16.83c-7.97,4.99 -17.14,8.25 -26.97,9.21c-0.5,0.05 -1,0.1 -1.5,0.14c-0.5,0.03 -1,0.06 -1.5,0.09c-1.04,0.05 -2.09,0.08 -3.15,0.08c-0.8,-3.66 -3.32,-7 -7.32,-9.58c-2.86,-1.85 -6.28,-3.18 -10.01,-3.93m23.48,18.69c9.58,0.94 18.54,4.06 26.37,8.84l-16.22,16.22c-2.72,2.72 -6.32,4.24 -10.15,4.3c-0.08,0 -0.17,0.01 -0.25,0.01c-0.42,0 -0.84,-0.02 -1.25,-0.06c-0.51,-0.04 -1.01,-0.11 -1.5,-0.2c-2.88,-0.54 -5.53,-1.93 -7.64,-4.05l-11.9,-11.89c3.36,-0.78 6.45,-2.04 9.07,-3.74c4.05,-2.62 6.59,-6.01 7.35,-9.73c1.05,0 2.09,0.02 3.12,0.07c0.5,0.03 1,0.06 1.5,0.1c0.5,0.04 1,0.08 1.5,0.13m-30.69,-15.46c0.03,0 0.06,0.01 0.09,0.01c0.64,0 1.26,0.02 1.88,0.06c0.6,0.03 1.2,0.09 1.78,0.16c6.09,0.71 11.34,3.1 14.36,6.33c-1.8,-0.87 -4,-1.39 -6.37,-1.39c-6.13,0 -11.1,3.42 -11.1,7.63c0,4.21 4.97,7.62 11.1,7.62c2.37,0 4.57,-0.51 6.37,-1.38c-2.85,3.04 -7.69,5.35 -13.35,6.19c-0.57,0.09 -1.14,0.16 -1.73,0.22c-0.6,0.05 -1.21,0.09 -1.82,0.11c-0.4,0.02 -0.81,0.03 -1.21,0.03c-11.32,0 -20.87,-5.86 -20.87,-12.79c0,-6.94 9.55,-12.8 20.87,-12.8m99.53,-13.6c1.8,2.51 3.78,4.9 5.91,7.14l-16.24,16.24l-16.42,-16.42c2.31,-2.45 4.44,-5.07 6.36,-7.84l10.63,10.63l9.76,-9.75zm-1.58,-2.31l-8.18,8.18l-9.08,-9.08c3.76,-5.94 6.6,-12.52 8.33,-19.52c1.82,7.36 4.87,14.25 8.93,20.42m-40.53,-33.15c0.51,-2.84 1.86,-5.56 4.06,-7.75l11.89,-11.9c0.78,3.36 2.04,6.45 3.73,9.07c2.68,4.13 6.15,6.69 9.96,7.39c0,1.07 -0.03,2.14 -0.08,3.19c-0.03,0.51 -0.06,1 -0.1,1.5c-0.03,0.5 -0.08,1 -0.13,1.5c-0.95,9.61 -4.08,18.58 -8.89,26.42l-16.38,-16.38c-2.78,-2.78 -4.2,-6.39 -4.29,-10.04c-0.01,-0.5 0,-1 0.04,-1.5c0.04,-0.5 0.1,-1 0.19,-1.5m64.93,3c-0.08,3.64 -1.51,7.26 -4.29,10.04l-17.3,17.3c-5.14,-8.05 -8.48,-17.36 -9.47,-27.34c-0.05,-0.5 -0.09,-1 -0.13,-1.5c-0.03,-0.5 -0.07,-1 -0.09,-1.5c-0.05,-1.03 -0.08,-2.08 -0.08,-3.13c3.94,-0.6 7.55,-3.19 10.31,-7.45c1.85,-2.86 3.18,-6.28 3.93,-10.01l12.83,12.84c2.2,2.19 3.55,4.91 4.06,7.75c0.09,0.5 0.16,1 0.19,1.5c0.04,0.5 0.06,1 0.04,1.5m-20.36,-30.8c0,0.03 0,0.06 0,0.09c0,0.64 -0.02,1.26 -0.06,1.88c-0.03,0.6 -0.09,1.2 -0.16,1.78c-0.71,6.09 -3.1,11.34 -6.33,14.36c0.87,-1.8 1.39,-4 1.39,-6.37c0,-6.13 -3.42,-11.1 -7.63,-11.1c-4.21,0 -7.62,4.97 -7.62,11.1c0,2.37 0.51,4.57 1.38,6.37c-3.05,-2.85 -5.35,-7.69 -6.2,-13.35c-0.08,-0.57 -0.15,-1.14 -0.21,-1.73c-0.05,-0.6 -0.09,-1.21 -0.12,-1.82c-0.01,-0.4 -0.02,-0.81 -0.02,-1.21c0,-11.31 5.86,-20.87 12.79,-20.87c6.94,0 12.79,9.56 12.79,20.87m38.25,148.29c0,-0.07 0.01,-0.14 0.01,-0.21c0,-3.29 -0.63,-6.49 -1.84,-9.44c3.12,1.26 6.45,1.86 9.76,1.82l0,7.83l-7.93,0zm-35.19,39.8c0.73,-2.83 1.12,-5.87 1.12,-9c0,-1.65 -0.11,-3.28 -0.32,-4.86l13.24,-13.25c2.67,-2.66 4.36,-6.04 4.92,-9.7c0.07,-0.49 0.12,-0.99 0.15,-1.5c0.03,-0.37 0.04,-0.75 0.04,-1.13c0,-0.12 0,-0.24 -0.01,-0.36c-0.09,-4.53 -1.89,-8.77 -5.1,-11.98l-17.12,-17.12c1.92,-2.78 4.05,-5.4 6.37,-7.83c0,0 0,0 0,0l21.77,21.77c3.99,3.99 6.19,9.3 6.19,14.95c0,0.07 0,0.14 0,0.21c-0.01,0.5 -0.03,1 -0.07,1.49c-0.04,0.51 -0.09,1.01 -0.17,1.5c-0.67,4.43 -2.72,8.52 -5.95,11.74l-25.06,25.07zm-62.42,-38.31c-0.04,-0.49 -0.06,-0.99 -0.07,-1.49c0,-0.07 0,-0.14 0,-0.21c0,-5.65 2.19,-10.96 6.19,-14.95c0,0 0,0 0,0l21.35,-21.35c2.12,2.25 4.07,4.67 5.84,7.22l-17.31,17.31c-3.21,3.21 -5.01,7.45 -5.1,11.98c-0.01,0.12 -0.01,0.23 -0.01,0.36c0,0.38 0.01,0.76 0.04,1.13c0.03,0.51 0.08,1.01 0.15,1.5c0.56,3.66 2.25,7.04 4.92,9.7l14.26,14.26c-0.13,1.27 -0.2,2.55 -0.2,3.85c0,3.13 0.39,6.17 1.12,9l-25.06,-25.07c-3.23,-3.22 -5.28,-7.31 -5.95,-11.74c-0.08,-0.49 -0.13,-0.99 -0.17,-1.5m-11.94,-9.31c0.11,0 0.21,0.01 0.32,0.01c3.29,0 6.47,-0.64 9.43,-1.83c-1.2,2.95 -1.83,6.14 -1.83,9.43c0,0.07 0.01,0.13 0.01,0.21l-7.93,0l0,-7.82zm-14.63,-10.13l-25.06,-25.07c2.83,0.74 5.87,1.13 9,1.13c1.65,0 3.28,-0.11 4.86,-0.32l13.25,13.24c2.63,2.64 5.97,4.32 9.58,4.89c0.49,0.08 0.99,0.14 1.5,0.17c0.41,0.03 0.83,0.05 1.25,0.05c0.08,0 0.17,0 0.25,0c4.57,-0.07 8.85,-1.87 12.09,-5.11l16.64,-16.64c2.8,1.89 5.44,4 7.89,6.31l-21.35,21.35c-4.21,4.2 -9.75,6.26 -15.27,6.17c-0.5,-0.01 -1,-0.03 -1.5,-0.07c-0.5,-0.04 -1,-0.11 -1.5,-0.18c-4.26,-0.68 -8.35,-2.65 -11.63,-5.92m22.33,-99.54c0,0.07 -0.01,0.14 -0.01,0.21c0,3.35 0.65,6.59 1.9,9.59c-2.91,-1.15 -6.04,-1.76 -9.27,-1.76c-0.11,0 -0.21,0.01 -0.32,0.01l0,-8.05l7.7,0zm35.19,-39.8c-0.73,2.83 -1.12,5.87 -1.12,9c0,1.65 0.11,3.28 0.32,4.86l-13.24,13.25c-2.73,2.73 -4.36,6.14 -4.9,9.69c-0.08,0.5 -0.13,1 -0.16,1.5c-0.03,0.5 -0.04,1 -0.03,1.5c0.08,4.35 1.78,8.67 5.09,11.98l16.8,16.8c-1.89,2.8 -4.01,5.43 -6.32,7.88l-21.27,-21.28l-0.23,-0.22c-3.99,-3.99 -6.19,-9.3 -6.19,-14.95c0,-0.07 0,-0.14 0,-0.21c0.01,-0.5 0.03,-1 0.07,-1.5c0.04,-0.5 0.1,-1 0.17,-1.5c0.67,-4.42 2.72,-8.51 5.95,-11.74l25.06,-25.06zm62.42,38.3c0.04,0.5 0.06,1 0.07,1.5c0,0.07 0,0.14 0,0.21c0,5.65 -2.19,10.95 -6.19,14.95l-21.68,21.68c-2.13,-2.24 -4.1,-4.64 -5.88,-7.18l17.68,-17.68c3.31,-3.31 5.01,-7.63 5.1,-11.98c0.01,-0.5 0,-1 -0.04,-1.5c-0.03,-0.5 -0.08,-1 -0.15,-1.5c-0.54,-3.55 -2.18,-6.97 -4.91,-9.69l-14.26,-14.27c0.13,-1.26 0.2,-2.54 0.2,-3.84c0,-3.13 -0.39,-6.17 -1.12,-9l25.06,25.06c3.23,3.23 5.28,7.31 5.95,11.74c0.08,0.5 0.13,1 0.17,1.5m12.17,9.56c-0.11,0 -0.21,-0.01 -0.32,-0.01c-3.35,0 -6.7,0.67 -9.83,2c1.31,-3.07 2,-6.4 2,-9.84c0,-0.07 0,-0.14 0,-0.21l8.15,0l0,8.06zm14.62,10.11l25.07,25.07c-2.83,-0.73 -5.87,-1.12 -9,-1.12c-1.65,0 -3.28,0.11 -4.86,0.32l-13.25,-13.25c-2.7,-2.7 -6.07,-4.32 -9.58,-4.88c-0.5,-0.08 -1,-0.13 -1.5,-0.17c-0.42,-0.03 -0.83,-0.05 -1.25,-0.05c-0.08,0 -0.17,0.01 -0.25,0.01c-4.38,0.06 -8.75,1.76 -12.09,5.09l-16.86,16.87c-2.83,-1.86 -5.5,-3.94 -7.98,-6.22l21.66,-21.67c4.21,-4.2 9.75,-6.25 15.27,-6.17c0.5,0.01 1,0.03 1.5,0.08c0.5,0.04 1,0.1 1.5,0.18c4.26,0.67 8.35,2.64 11.63,5.92m46.26,40.68l-43.47,-43.47c-4.05,-4.05 -9.14,-6.42 -14.42,-7.12l0,-11.27l-11.36,0c-0.69,-5.48 -3.16,-10.55 -7.14,-14.53l-43.47,-43.47l-43.47,43.47c-3.97,3.98 -6.44,9.05 -7.14,14.53l-10.9,0l0,11.26c-5.44,0.72 -10.47,3.18 -14.42,7.13l-43.47,43.47l43.47,43.47c3.95,3.95 8.98,6.41 14.42,7.12l0,11.03l11.13,0c0.7,5.49 3.16,10.56 7.14,14.53l43.47,43.48l43.47,-43.48c3.98,-3.97 6.44,-9.04 7.14,-14.53l11.13,0l0,-11.04c5.28,-0.7 10.37,-3.07 14.42,-7.11l43.47,-43.47z" fill="#4d3a30" fill-rule="nonzero" id="path338"/>
   </g>
   <g id="g344" transform="translate(186.224,219.2637)">
    <path d="m0,0l-42.12,42.12l42.12,42.11c7.35,7.35 18.41,8.72 27.15,4.11c-0.51,0.91 -0.96,1.85 -1.36,2.81c-2.95,1.2 -6.15,1.83 -9.43,1.83c-6.71,0 -13.02,-2.61 -17.76,-7.35l-43.51,-43.51l43.51,-43.52c4.74,-4.74 11.05,-7.35 17.76,-7.35c3.23,0 6.37,0.61 9.29,1.78c0.4,0.95 0.85,1.89 1.37,2.8c-8.71,-4.53 -19.71,-3.14 -27.02,4.17" fill="#4d3a30" fill-rule="nonzero" id="path342"/>
   </g>
   <g id="g348" transform="translate(217.541,220.6599)">
    <path d="m0,0c-4,-4 -9.31,-6.2 -14.96,-6.2c-5.65,0 -10.97,2.2 -14.96,6.2l-39.04,39.04l-2.72,0l0,3.36l2.72,0l39.04,39.04c4,3.99 9.31,6.2 14.96,6.2c5.65,0 10.96,-2.21 14.96,-6.2c-1.66,1.66 -3.05,3.51 -4.17,5.5c-8.73,4.61 -19.8,3.24 -27.15,-4.1l-42.11,-42.12l42.11,-42.12c7.32,-7.31 18.31,-8.7 27.02,-4.17c1.09,1.91 2.44,3.71 4.07,5.34l0.23,0.23z" fill="#4d3a30" fill-rule="nonzero" id="path346"/>
   </g>
   <g id="g352" transform="translate(302.9399,186.3219)">
    <path d="m0,0l-40.24,-40.24l0,-0.9l-0.9,0l-0.97,-0.97l-0.98,0.97l-0.51,0l0,0.51l-40.63,40.63c-7.39,7.39 -8.73,18.54 -4.03,27.29c-0.91,-0.5 -1.84,-0.94 -2.8,-1.32c-3.76,-9.1 -1.95,-19.98 5.43,-27.37l43.51,-43.51l43.52,43.51c7.44,7.45 9.22,18.45 5.34,27.6c-1.01,0.42 -1.98,0.91 -2.92,1.47c4.95,-8.81 3.68,-20.17 -3.82,-27.67" fill="#4d3a30" fill-rule="nonzero" id="path350"/>
   </g>
   <g id="g356" transform="translate(218.7092,219.0354)">
    <path d="m0,0l0.23,0.23c-1.72,-1.72 -3.64,-3.11 -5.69,-4.18c-0.52,-0.91 -0.98,-1.84 -1.37,-2.8c0.96,0.39 1.89,0.83 2.8,1.33c1.05,1.95 2.39,3.78 4.03,5.42" fill="#4d3a30" fill-rule="nonzero" id="path354"/>
   </g>
   <g id="g360" transform="translate(226.0841,229.2029)">
    <path d="m0,0l-8.54,-8.54l-0.23,-0.23c-1.63,-1.63 -2.98,-3.43 -4.07,-5.34c2.05,1.06 3.97,2.45 5.69,4.17l8.52,8.52c-0.46,0.46 -0.92,0.94 -1.37,1.42" fill="#4d3a30" fill-rule="nonzero" id="path358"/>
   </g>
   <g id="g364" transform="translate(260.8246,144.2066)">
    <path d="m0,0l0.97,0.97l-1.94,0l0.97,-0.97z" fill="#4d3a30" fill-rule="nonzero" id="path362"/>
   </g>
   <g id="g368" transform="translate(292.6889,226.9505)">
    <path d="m0,0c-0.08,-0.07 -0.16,-0.15 -0.24,-0.22l9.1,-9.09c8.24,-8.25 8.24,-21.67 0,-29.92l-38.85,-38.84l0,-2.8l40.24,40.24c7.5,7.5 8.77,18.86 3.82,27.67c-1.8,1.07 -3.47,2.36 -4.99,3.88l-9.08,9.08z" fill="#4d3a30" fill-rule="nonzero" id="path366"/>
   </g>
   <g id="g372" transform="translate(220.1053,187.7182)">
    <path d="m0,0c-8.25,8.25 -8.25,21.67 0,29.92l0.23,0.23c-1.7,-1.7 -3.61,-3.12 -5.66,-4.25c-4.7,-8.76 -3.36,-19.91 4.03,-27.3l40.63,-40.63l0,2.8l-39.23,39.23z" fill="#4d3a30" fill-rule="nonzero" id="path370"/>
   </g>
   <g id="g376" transform="translate(228.8886,226.4222)">
    <path d="m0,0c-0.49,0.44 -0.96,0.9 -1.43,1.36l-8.52,-8.52c0,0 0,0 0,0l-0.23,-0.23c-1.64,-1.64 -2.98,-3.47 -4.03,-5.42c2.05,1.13 3.96,2.55 5.66,4.26l8.55,8.55z" fill="#4d3a30" fill-rule="nonzero" id="path374"/>
   </g>
   <g id="g380" transform="translate(227.4574,227.7836)">
    <path d="m0,0l0,0l-8.52,-8.52c0,0 0,0 0,0l8.52,8.52z" fill="#4d3a30" fill-rule="nonzero" id="path378"/>
   </g>
   <g id="g384" transform="translate(226.5089,263.0616)">
    <path d="m0,0l0,-1.8c2.24,0.6 4.41,1.35 6.51,2.25c-0.47,0.26 -0.94,0.53 -1.42,0.8l0.53,0.96c0.72,-0.4 1.43,-0.81 2.12,-1.22c2.9,1.34 5.65,2.95 8.21,4.8c-0.35,0.38 -0.7,0.76 -1.07,1.13l0.79,0.76c0.4,-0.41 0.78,-0.82 1.16,-1.24c1.29,0.98 2.51,2.01 3.69,3.1l-2.32,2.33c-7.24,-6.67 -16.64,-11.02 -27.02,-11.87l8.82,0z" fill="#4d3a30" fill-rule="nonzero" id="path382"/>
   </g>
   <g id="g388" transform="translate(263.557,255.6259)">
    <path d="m0,0c-0.88,-4.58 -1.51,-9.04 -1.96,-13.11l0,-8.5c0.16,0.89 0.35,1.81 0.56,2.77c0.41,5.15 1.11,11.39 2.33,17.91l-0.93,0.93z" fill="#4d3a30" fill-rule="nonzero" id="path386"/>
   </g>
   <g id="g392" transform="translate(267.2114,251.9715)">
    <path d="m0,0c-2.5,-5.46 -4.07,-10.7 -5.06,-15.18c-0.09,-1.23 -0.17,-2.4 -0.24,-3.49c0.41,1.41 0.93,2.94 1.61,4.56c0.95,4.01 2.38,8.56 4.51,13.29l-0.82,0.82z" fill="#4d3a30" fill-rule="nonzero" id="path390"/>
   </g>
   <g id="g396" transform="translate(261.6003,232.1631)">
    <path d="m0,0c0.1,0.37 0.2,0.75 0.31,1.14c0.07,1.09 0.15,2.26 0.25,3.49c-0.22,-0.96 -0.4,-1.89 -0.56,-2.78l0,-1.85z" fill="#4d3a30" fill-rule="nonzero" id="path394"/>
   </g>
   <g id="g400" transform="translate(263.6261,238.1159)">
    <path d="m0,0c-0.04,-0.09 -0.07,-0.17 -0.11,-0.26c-0.68,-2.89 -1.13,-5.51 -1.41,-7.71c0.13,0.39 0.27,0.77 0.42,1.16c0.45,1.9 1.13,4.09 2.13,6.44c1.31,3.06 3.29,6.68 6.29,10.49l-0.78,0.78c-3.13,-3.96 -5.19,-7.72 -6.54,-10.9" fill="#4d3a30" fill-rule="nonzero" id="path398"/>
   </g>
   <g id="g404" transform="translate(261.6971,228.9263)">
    <path d="m0,0c0.13,0.41 0.27,0.81 0.41,1.22c0.28,2.2 0.72,4.82 1.41,7.72c-0.67,-1.62 -1.2,-3.15 -1.61,-4.57c-0.09,-1.63 -0.16,-3.1 -0.21,-4.37" fill="#4d3a30" fill-rule="nonzero" id="path402"/>
   </g>
   <g id="g408" transform="translate(261.6003,228.6273)">
    <path d="m0,0c0.03,0.1 0.07,0.2 0.1,0.3c0.04,1.27 0.11,2.74 0.21,4.37c-0.11,-0.39 -0.21,-0.76 -0.31,-1.13l0,-3.54z" fill="#4d3a30" fill-rule="nonzero" id="path406"/>
   </g>
   <g id="g412" transform="translate(261.6003,263.6246)">
    <path d="m0,0l0,1.09l-0.55,-0.54l0.55,-0.55z" fill="#4d3a30" fill-rule="nonzero" id="path410"/>
   </g>
   <g id="g416" transform="translate(261.0527,263.7155)">
    <path d="m0,0l0.55,-0.55l0,0.46l-0.55,0.55l0,0l0,-0.46z" fill="#4d3a30" fill-rule="nonzero" id="path414"/>
   </g>
   <g id="g420" transform="translate(261.0527,258.1302)">
    <path d="m0,0l0,-21.43l0,0c0.14,1.82 0.32,3.77 0.55,5.82l0,15.06l-0.55,0.55z" fill="#4d3a30" fill-rule="nonzero" id="path418"/>
   </g>
   <g id="g424" transform="translate(261.0527,260.9226)">
    <path d="m0,0l0.55,-0.55l0,0.46l-0.55,0.55l0,0l0,-0.46z" fill="#4d3a30" fill-rule="nonzero" id="path422"/>
   </g>
   <g id="g428" transform="translate(261.0529,261.379)">
    <path d="m0,0l0,0l0,0z" fill="#4d3a30" fill-rule="nonzero" id="path426"/>
   </g>
   <g id="g432" transform="translate(261.6003,261.9265)">
    <path d="m0,0l-0.55,-0.55l0.55,-0.54l0,1.09z" fill="#4d3a30" fill-rule="nonzero" id="path430"/>
   </g>
   <g id="g436" transform="translate(261.0529,261.379)">
    <path d="m0,0l0.55,0.55l0,1.24l-0.55,0.55l0,-2.34z" fill="#4d3a30" fill-rule="nonzero" id="path434"/>
   </g>
   <g id="g440" transform="translate(261.0527,258.5863)">
    <path d="m0,0l0,-0.46l0.55,-0.54l0,0.45l-0.55,0.55z" fill="#4d3a30" fill-rule="nonzero" id="path438"/>
   </g>
   <g id="g444" transform="translate(261.0527,258.5863)">
    <path d="m0,0l0,0l0,0l0,0z" fill="#4d3a30" fill-rule="nonzero" id="path442"/>
   </g>
   <g id="g448" transform="translate(261.053,258.5866)">
    <path d="m0,0l0,0l0.55,-0.55l0,1.1l-0.55,-0.55z" fill="#4d3a30" fill-rule="nonzero" id="path446"/>
   </g>
   <g id="g452" transform="translate(261.053,258.5866)">
    <path d="m0,0l0,0l0,0z" fill="#4d3a30" fill-rule="nonzero" id="path450"/>
   </g>
   <g id="g456" transform="translate(261.0527,258.5869)">
    <path d="m0,0l0,0l0.55,0.55l0,1.24l-0.55,0.55l0,-2.34z" fill="#4d3a30" fill-rule="nonzero" id="path454"/>
   </g>
   <g id="g460" transform="translate(260.8247,263.9435)">
    <path d="m0,0l0.23,0.23l0,0l-0.55,0.55l0,-1.1l0.32,0.32z" fill="#4d3a30" fill-rule="nonzero" id="path458"/>
   </g>
   <g id="g464" transform="translate(261.0527,258.1302)">
    <path d="m0,0l-0.23,0.23l-0.32,-0.32l0,-15.52c0.23,-2.05 0.41,-4 0.55,-5.82l0,21.43z" fill="#4d3a30" fill-rule="nonzero" id="path462"/>
   </g>
   <g id="g468" transform="translate(261.0527,261.3789)">
    <path d="m0,0l-0.23,-0.23l0.23,-0.23l0,0.46z" fill="#4d3a30" fill-rule="nonzero" id="path466"/>
   </g>
   <g id="g472" transform="translate(260.8246,261.1508)">
    <path d="m0,0l0.23,0.23l0,0l-0.55,0.55l0,-1.1l0.32,0.32z" fill="#4d3a30" fill-rule="nonzero" id="path470"/>
   </g>
   <g id="g476" transform="translate(261.0527,261.3792)">
    <path d="m0,0l0,2.34l-0.23,0.22l-0.32,-0.31l0,-1.7l0.55,-0.55z" fill="#4d3a30" fill-rule="nonzero" id="path474"/>
   </g>
   <g id="g480" transform="translate(260.8247,258.3583)">
    <path d="m0,0l0.23,-0.23l0,0.46l-0.23,-0.23z" fill="#4d3a30" fill-rule="nonzero" id="path478"/>
   </g>
   <g id="g484" transform="translate(261.0527,258.5869)">
    <path d="m0,0l-0.55,0.55l0,-1.1l0.32,0.32l0.23,0.23l0,0z" fill="#4d3a30" fill-rule="nonzero" id="path482"/>
   </g>
   <g id="g488" transform="translate(261.0527,258.5869)">
    <path d="m0,0l-0.55,0.55l0.55,-0.55z" fill="#4d3a30" fill-rule="nonzero" id="path486"/>
   </g>
   <g id="g492" transform="translate(261.0527,258.5869)">
    <path d="m0,0l0,2.34l-0.23,0.22l-0.32,-0.32l0,-1.69l0.55,-0.55z" fill="#4d3a30" fill-rule="nonzero" id="path490"/>
   </g>
   <g id="g496" transform="translate(260.8246,261.1508)">
    <path d="m0,0l0,0l-0.32,-0.32l0.32,0.32z" fill="#4d3a30" fill-rule="nonzero" id="path494"/>
   </g>
   <g id="g500" transform="translate(261.0527,236.7039)">
    <path d="m0,0l0,0c0.12,-1.51 0.21,-2.92 0.29,-4.22c0.08,0.49 0.16,1.01 0.26,1.53l0,8.51c-0.23,-2.05 -0.41,-4 -0.55,-5.82z" fill="#4d3a30" fill-rule="nonzero" id="path498"/>
   </g>
   <g id="g504" transform="translate(261.3983,231.3456)">
    <path d="m0,0c0.06,0.27 0.13,0.54 0.2,0.82l0,1.85c-0.09,-0.53 -0.18,-1.04 -0.26,-1.54c0.02,-0.39 0.04,-0.76 0.06,-1.13" fill="#4d3a30" fill-rule="nonzero" id="path502"/>
   </g>
   <g id="g508" transform="translate(261.3983,231.3456)">
    <path d="m0,0c0.06,-1.09 0.1,-2.09 0.12,-2.98c0.03,0.09 0.06,0.18 0.08,0.26l0,3.54c-0.07,-0.28 -0.14,-0.55 -0.2,-0.82" fill="#4d3a30" fill-rule="nonzero" id="path506"/>
   </g>
   <g id="g512" transform="translate(257.0048,262.6348)">
    <path d="m0,0l-1.52,1.52c0.4,-1.48 0.76,-2.97 1.1,-4.45l0.91,0.9c-0.16,0.68 -0.32,1.36 -0.49,2.03" fill="#4d3a30" fill-rule="nonzero" id="path510"/>
   </g>
   <g id="g516" transform="translate(257.0048,262.6349)">
    <path d="m0,0l-1.52,1.52l0,0l1.52,-1.52z" fill="#4d3a30" fill-rule="nonzero" id="path514"/>
   </g>
   <g id="g520" transform="translate(255.9814,266.4506)">
    <path d="m0,0l-1.62,1.62c0.4,-1.3 0.78,-2.6 1.13,-3.92l1.51,-1.52c-0.32,1.28 -0.66,2.55 -1.02,3.82" fill="#4d3a30" fill-rule="nonzero" id="path518"/>
   </g>
   <g id="g524" transform="translate(260.505,242.5229)">
    <path d="m0,0c-0.46,4.17 -1.11,8.77 -2.03,13.48l-0.93,-0.93c1.26,-6.65 1.99,-13.03 2.4,-18.28c0.22,-0.96 0.4,-1.89 0.56,-2.78l0,8.51z" fill="#4d3a30" fill-rule="nonzero" id="path522"/>
   </g>
   <g id="g528" transform="translate(257.999,258.3253)">
    <path d="m0,0c-0.16,0.76 -0.33,1.52 -0.51,2.28l-0.91,-0.9c0.18,-0.77 0.34,-1.54 0.5,-2.3l0.92,0.92z" fill="#4d3a30" fill-rule="nonzero" id="path526"/>
   </g>
   <g id="g532" transform="translate(257.0803,257.4066)">
    <path d="m0,0c0.16,-0.78 0.32,-1.56 0.46,-2.33l0.93,0.93c-0.15,0.77 -0.31,1.54 -0.47,2.32l-0.92,-0.92z" fill="#4d3a30" fill-rule="nonzero" id="path530"/>
   </g>
   <g id="g536" transform="translate(257.999,258.3252)">
    <path d="m0,0l0,0l-0.92,-0.92l0.92,0.92z" fill="#4d3a30" fill-rule="nonzero" id="path534"/>
   </g>
   <g id="g540" transform="translate(261.0527,236.7034)">
    <path d="m0,0l0,0l0,0l0,0l0,0c-0.14,1.82 -0.32,3.77 -0.55,5.82l0,-8.51c0.1,-0.52 0.18,-1.04 0.26,-1.53c0.08,1.3 0.17,2.71 0.29,4.22" fill="#4d3a30" fill-rule="nonzero" id="path538"/>
   </g>
   <g id="g544" transform="translate(260.7675,232.479)">
    <path d="m0,0c0.11,-0.68 0.2,-1.32 0.29,-1.94l0,6.16c-0.12,-1.51 -0.22,-2.92 -0.29,-4.22" fill="#4d3a30" fill-rule="nonzero" id="path542"/>
   </g>
   <g id="g548" transform="translate(261.0527,230.5374)">
    <path d="m0,0c0.08,0.62 0.18,1.27 0.29,1.94c-0.08,1.3 -0.17,2.72 -0.29,4.23l0,0l0,-6.17z" fill="#4d3a30" fill-rule="nonzero" id="path546"/>
   </g>
   <g id="g552" transform="translate(261.0527,230.5374)">
    <path d="m0,0l0,0l0,0c0.02,-0.17 0.04,-0.33 0.06,-0.49c0.09,0.42 0.18,0.85 0.29,1.3c-0.02,0.37 -0.04,0.74 -0.06,1.13c-0.11,-0.67 -0.21,-1.32 -0.29,-1.94" fill="#4d3a30" fill-rule="nonzero" id="path550"/>
   </g>
   <g id="g556" transform="translate(261.3606,227.8232)">
    <path d="m0,0c0.05,0.18 0.11,0.36 0.16,0.54c-0.03,0.89 -0.07,1.89 -0.12,2.98c-0.11,-0.44 -0.2,-0.88 -0.28,-1.29c0.1,-0.8 0.18,-1.55 0.24,-2.23" fill="#4d3a30" fill-rule="nonzero" id="path554"/>
   </g>
   <g id="g560" transform="translate(252.8891,256.008)">
    <path d="m0,0c-2.44,4.54 -5.56,9.13 -9.55,13.5c-0.29,-0.22 -0.58,-0.44 -0.88,-0.66c4.05,-4.41 7.18,-9.06 9.62,-13.65l0.81,0.81z" fill="#4d3a30" fill-rule="nonzero" id="path558"/>
   </g>
   <g id="g564" transform="translate(259.9486,236.7942)">
    <path d="m0,0c-1,4.57 -2.62,9.92 -5.2,15.49l-0.82,-0.82c2.21,-4.84 3.68,-9.5 4.66,-13.6c0.67,-1.62 1.2,-3.15 1.61,-4.56c-0.07,1.09 -0.15,2.26 -0.25,3.49" fill="#4d3a30" fill-rule="nonzero" id="path562"/>
   </g>
   <g id="g568" transform="translate(253.8425,254.1687)">
    <path d="m0,0c-0.31,0.61 -0.62,1.23 -0.95,1.84l-0.81,-0.81c0.33,-0.61 0.64,-1.23 0.94,-1.84l0.82,0.81z" fill="#4d3a30" fill-rule="nonzero" id="path566"/>
   </g>
   <g id="g572" transform="translate(253.0278,253.354)">
    <path d="m0,0c0.31,-0.63 0.61,-1.27 0.9,-1.89l0.82,0.82c-0.29,0.63 -0.59,1.25 -0.9,1.88l-0.82,-0.81z" fill="#4d3a30" fill-rule="nonzero" id="path570"/>
   </g>
   <g id="g576" transform="translate(253.8425,254.1687)">
    <path d="m0,0l-0.82,-0.82l0.82,0.82z" fill="#4d3a30" fill-rule="nonzero" id="path574"/>
   </g>
   <g id="g580" transform="translate(260.505,234.017)">
    <path d="m0,0c-0.16,0.89 -0.34,1.81 -0.56,2.78c0.1,-1.23 0.18,-2.4 0.25,-3.5c0.11,-0.38 0.21,-0.76 0.31,-1.13l0,1.85z" fill="#4d3a30" fill-rule="nonzero" id="path578"/>
   </g>
   <g id="g584" transform="translate(260.505,234.017)">
    <path d="m0,0l0,-1.85c0.07,-0.28 0.14,-0.56 0.2,-0.82c0.02,0.36 0.04,0.74 0.06,1.13c-0.08,0.5 -0.16,1.01 -0.26,1.54" fill="#4d3a30" fill-rule="nonzero" id="path582"/>
   </g>
   <g id="g588" transform="translate(261.0527,230.537)">
    <path d="m0,0l0,0l0,0c-0.08,0.62 -0.18,1.27 -0.29,1.94c-0.02,-0.39 -0.04,-0.76 -0.06,-1.13c0.11,-0.45 0.2,-0.88 0.29,-1.3c0.02,0.16 0.04,0.32 0.06,0.49" fill="#4d3a30" fill-rule="nonzero" id="path586"/>
   </g>
   <g id="g592" transform="translate(261.0526,229.7176)">
    <path d="m0,0l0,0l0,0l0,0.82c-0.02,-0.16 -0.04,-0.33 -0.06,-0.49c0.02,-0.11 0.04,-0.22 0.06,-0.33" fill="#4d3a30" fill-rule="nonzero" id="path590"/>
   </g>
   <g id="g596" transform="translate(261.1162,230.0495)">
    <path d="m0,0c-0.02,0.16 -0.04,0.32 -0.06,0.49l0,-0.82c0.02,0.11 0.04,0.22 0.06,0.33" fill="#4d3a30" fill-rule="nonzero" id="path594"/>
   </g>
   <g id="g600" transform="translate(261.0527,229.7176)">
    <path d="m0,0l0,0l0,0c0.13,-0.68 0.23,-1.32 0.31,-1.9c0,0 0,0.01 0,0.01c-0.07,0.68 -0.15,1.42 -0.25,2.22c-0.02,-0.11 -0.04,-0.22 -0.06,-0.33z" fill="#4d3a30" fill-rule="nonzero" id="path598"/>
   </g>
   <g id="g604" transform="translate(261.0527,229.7176)">
    <path d="m0,0l0,0c0,0 0,0 0,0z" fill="#4d3a30" fill-rule="nonzero" id="path602"/>
   </g>
   <g id="g608" transform="translate(248.3689,251.4878)">
    <path d="m0,0l0.78,0.78c-3.71,3.97 -8.55,8.03 -14.9,11.78c-0.41,-0.18 -0.82,-0.36 -1.23,-0.54c6.6,-3.82 11.58,-7.96 15.35,-12.02" fill="#4d3a30" fill-rule="nonzero" id="path606"/>
   </g>
   <g id="g612" transform="translate(258.5851,237.8598)">
    <path d="m0,0c-0.04,0.09 -0.07,0.17 -0.11,0.26c-1.37,3.24 -3.49,7.1 -6.74,11.15l-0.78,-0.78c3.12,-3.9 5.16,-7.61 6.49,-10.74c1,-2.36 1.68,-4.54 2.14,-6.45c0.14,-0.38 0.28,-0.77 0.42,-1.16c-0.29,2.21 -0.73,4.82 -1.42,7.72" fill="#4d3a30" fill-rule="nonzero" id="path610"/>
   </g>
   <g id="g616" transform="translate(249.1439,252.2626)">
    <path d="m0,0l-0.78,-0.78c0.46,-0.49 0.9,-0.98 1.33,-1.47l0.77,0.78c-0.42,0.49 -0.86,0.98 -1.32,1.47" fill="#4d3a30" fill-rule="nonzero" id="path614"/>
   </g>
   <g id="g620" transform="translate(249.6891,250.0153)">
    <path d="m0,0c0.44,-0.51 0.86,-1.02 1.27,-1.52l0.77,0.77c-0.4,0.51 -0.82,1.01 -1.27,1.52l-0.77,-0.77z" fill="#4d3a30" fill-rule="nonzero" id="path618"/>
   </g>
   <g id="g624" transform="translate(250.4631,250.7894)">
    <path d="m0,0l-0.77,-0.77l0,0l0.77,0.77c0,0 0,0 0,0" fill="#4d3a30" fill-rule="nonzero" id="path622"/>
   </g>
   <g id="g628" transform="translate(232.1254,265.2688)">
    <path d="m0,0l-0.53,-0.96c0.48,-0.27 0.96,-0.53 1.42,-0.8c0.42,0.17 0.83,0.36 1.23,0.54c-0.69,0.41 -1.39,0.82 -2.12,1.22" fill="#4d3a30" fill-rule="nonzero" id="path626"/>
   </g>
   <g id="g632" transform="translate(260.1936,233.3011)">
    <path d="m0,0c-0.41,1.41 -0.94,2.94 -1.61,4.56c0.69,-2.9 1.13,-5.52 1.42,-7.72c0.14,-0.4 0.27,-0.81 0.4,-1.21c-0.04,1.27 -0.11,2.74 -0.21,4.37" fill="#4d3a30" fill-rule="nonzero" id="path630"/>
   </g>
   <g id="g636" transform="translate(260.1936,233.3011)">
    <path d="m0,0c0.1,-1.63 0.17,-3.1 0.21,-4.37c0.04,-0.1 0.07,-0.2 0.1,-0.3l0,3.53c-0.09,0.37 -0.2,0.75 -0.31,1.14" fill="#4d3a30" fill-rule="nonzero" id="path634"/>
   </g>
   <g id="g640" transform="translate(260.7071,231.3454)">
    <path d="m0,0c-0.06,0.27 -0.13,0.54 -0.2,0.82l0,-3.54c0.02,-0.08 0.05,-0.17 0.07,-0.26c0.03,0.89 0.08,1.89 0.13,2.98" fill="#4d3a30" fill-rule="nonzero" id="path638"/>
   </g>
   <g id="g644" transform="translate(260.9892,230.0491)">
    <path d="m0,0c-0.08,0.42 -0.18,0.85 -0.28,1.3c-0.06,-1.1 -0.1,-2.09 -0.13,-2.98c0.06,-0.18 0.11,-0.36 0.17,-0.55c0.06,0.69 0.14,1.43 0.24,2.23" fill="#4d3a30" fill-rule="nonzero" id="path642"/>
   </g>
   <g id="g648" transform="translate(261.0526,229.7176)">
    <path d="m0,0c-0.02,0.11 -0.04,0.22 -0.06,0.33c-0.1,-0.8 -0.18,-1.54 -0.25,-2.22c0,-0.01 0,-0.01 0,-0.01c0.08,0.58 0.18,1.22 0.31,1.9" fill="#4d3a30" fill-rule="nonzero" id="path646"/>
   </g>
   <g id="g652" transform="translate(261.0527,229.7171)">
    <path d="m0,0l0,-2.17l0.23,0c0.03,0.09 0.05,0.18 0.08,0.27c-0.08,0.58 -0.18,1.22 -0.31,1.9" fill="#4d3a30" fill-rule="nonzero" id="path650"/>
   </g>
   <g id="g656" transform="translate(261.0527,229.7173)">
    <path d="m0,0c0,0 0,0 0,0c-0.13,-0.68 -0.23,-1.32 -0.31,-1.9c0.03,-0.09 0.05,-0.18 0.08,-0.27l0.23,0l0,2.17z" fill="#4d3a30" fill-rule="nonzero" id="path654"/>
   </g>
   <g id="g660" transform="translate(226.5089,261.2646)">
    <path d="m0,0l0,-1.57l-9.96,0c-0.86,-0.04 -1.73,-0.07 -2.6,-0.07c11.8,0 22.56,-4.52 30.65,-11.91l2.32,2.32c-5.72,5.26 -12.69,9.17 -20.41,11.23" fill="#4d3a30" fill-rule="nonzero" id="path658"/>
   </g>
   <g id="g664" transform="translate(260.2766,227.5506)">
    <path d="m0,0c-0.14,1.07 -0.35,2.33 -0.69,3.75c-2.25,5.96 -5.63,11.36 -9.87,15.95l-2.33,-2.33c6.93,-7.52 11.35,-17.37 11.95,-28.23l0,10.86l0.94,0z" fill="#4d3a30" fill-rule="nonzero" id="path662"/>
   </g>
   <g id="g668" transform="translate(246.9143,250.0332)">
    <path d="m0,0l-2.32,-2.32c0.48,-0.45 0.96,-0.9 1.43,-1.36l2.32,2.31c-0.47,0.47 -0.94,0.92 -1.43,1.37" fill="#4d3a30" fill-rule="nonzero" id="path666"/>
   </g>
   <g id="g672" transform="translate(248.3398,248.666)">
    <path d="m0,0l-2.32,-2.32c0.47,-0.46 0.92,-0.94 1.37,-1.42l2.32,2.32c-0.44,0.48 -0.9,0.95 -1.37,1.42" fill="#4d3a30" fill-rule="nonzero" id="path670"/>
   </g>
   <g id="g676" transform="translate(248.3398,248.666)">
    <path d="m0,0l-2.32,-2.32l0,0l2.32,2.32c0,0 0,0 0,0" fill="#4d3a30" fill-rule="nonzero" id="path674"/>
   </g>
   <g id="g680" transform="translate(260.0024,230.1431)">
    <path d="m0,0c-0.14,0.39 -0.28,0.78 -0.42,1.16c0.34,-1.42 0.56,-2.68 0.69,-3.75l0.02,0c-0.08,0.78 -0.17,1.64 -0.29,2.59" fill="#4d3a30" fill-rule="nonzero" id="path678"/>
   </g>
   <g id="g684" transform="translate(260.0024,230.1431)">
    <path d="m0,0c0.12,-0.95 0.21,-1.81 0.29,-2.59l0.16,0c-0.01,0.43 -0.03,0.88 -0.04,1.37c-0.13,0.41 -0.27,0.82 -0.41,1.22" fill="#4d3a30" fill-rule="nonzero" id="path682"/>
   </g>
   <g id="g688" transform="translate(260.505,228.6275)">
    <path d="m0,0c-0.03,0.1 -0.07,0.2 -0.1,0.3c0.02,-0.49 0.03,-0.95 0.05,-1.38l0.05,0l0,1.08z" fill="#4d3a30" fill-rule="nonzero" id="path686"/>
   </g>
   <g id="g692" transform="translate(260.5825,228.3675)">
    <path d="m0,0c-0.03,0.09 -0.05,0.17 -0.08,0.26l0,-1.08l0.05,0c0.01,0.26 0.02,0.53 0.03,0.82" fill="#4d3a30" fill-rule="nonzero" id="path690"/>
   </g>
   <g id="g696" transform="translate(260.7413,227.7867)">
    <path d="m0,0c0,0.01 0,0.02 0,0.04c-0.05,0.18 -0.1,0.36 -0.16,0.54c-0.01,-0.28 -0.02,-0.55 -0.02,-0.82l0.15,0c0.01,0.08 0.02,0.16 0.03,0.24" fill="#4d3a30" fill-rule="nonzero" id="path694"/>
   </g>
   <g id="g700" transform="translate(260.7448,227.8232)">
    <path d="m0,0c0,-0.01 0,-0.03 0,-0.04c0,0.02 0,0.03 0,0.04c0,0 0,0 0,0" fill="#4d3a30" fill-rule="nonzero" id="path698"/>
   </g>
   <g id="g704" transform="translate(260.7129,227.5506)">
    <path d="m0,0l0.01,0c0,0.08 0.01,0.16 0.02,0.24c-0.01,-0.09 -0.02,-0.16 -0.03,-0.24" fill="#4d3a30" fill-rule="nonzero" id="path702"/>
   </g>
   <g id="g708" transform="translate(260.7413,227.7867)">
    <path d="m0,0c-0.01,-0.08 -0.01,-0.16 -0.02,-0.24l0.1,0c-0.03,0.09 -0.05,0.18 -0.08,0.27c0,-0.01 0,-0.02 0,-0.03" fill="#4d3a30" fill-rule="nonzero" id="path706"/>
   </g>
   <g id="g712" transform="translate(261.8286,227.5506)">
    <path d="m0,0l0.88,0l0,-12.76c0.15,11.49 4.59,21.97 11.79,29.9l-2.32,2.32c-4.15,-4.54 -7.45,-9.86 -9.66,-15.71c-0.34,-1.42 -0.55,-2.68 -0.69,-3.75" fill="#4d3a30" fill-rule="nonzero" id="path710"/>
   </g>
   <g id="g716" transform="translate(261.8184,227.5506)">
    <path d="m0,0l0.01,0c0.14,1.07 0.35,2.33 0.69,3.75c-0.14,-0.38 -0.28,-0.77 -0.41,-1.16c-0.13,-0.94 -0.22,-1.81 -0.29,-2.59" fill="#4d3a30" fill-rule="nonzero" id="path714"/>
   </g>
   <g id="g720" transform="translate(261.6526,227.5506)">
    <path d="m0,0l0.17,0c0.07,0.78 0.16,1.65 0.28,2.59c-0.14,-0.4 -0.28,-0.81 -0.41,-1.21c-0.01,-0.49 -0.03,-0.95 -0.04,-1.38" fill="#4d3a30" fill-rule="nonzero" id="path718"/>
   </g>
   <g id="g724" transform="translate(261.6003,228.6273)">
    <path d="m0,0l0,-1.08l0.05,0c0.01,0.43 0.03,0.89 0.05,1.38c-0.03,-0.1 -0.07,-0.2 -0.1,-0.3" fill="#4d3a30" fill-rule="nonzero" id="path722"/>
   </g>
   <g id="g728" transform="translate(261.5478,227.5506)">
    <path d="m0,0l0.05,0l0,1.08c-0.02,-0.09 -0.05,-0.18 -0.08,-0.26c0.01,-0.29 0.02,-0.56 0.03,-0.82" fill="#4d3a30" fill-rule="nonzero" id="path726"/>
   </g>
   <g id="g732" transform="translate(261.3643,227.7843)">
    <path d="m0,0c0.01,-0.08 0.02,-0.16 0.03,-0.23l0.15,0c0,0.26 -0.01,0.53 -0.02,0.81c-0.06,-0.18 -0.11,-0.36 -0.16,-0.54c0,-0.01 0,-0.03 0,-0.04" fill="#4d3a30" fill-rule="nonzero" id="path730"/>
   </g>
   <g id="g736" transform="translate(261.3643,227.7843)">
    <path d="m0,0c0,0.01 0,0.03 0,0.04c0,0 0,0 -0.01,0c0.01,-0.02 0.01,-0.03 0.01,-0.04" fill="#4d3a30" fill-rule="nonzero" id="path734"/>
   </g>
   <g id="g740" transform="translate(261.3924,227.5506)">
    <path d="m0,0c-0.01,0.08 -0.02,0.15 -0.03,0.23c0.01,-0.08 0.02,-0.15 0.02,-0.23l0.01,0z" fill="#4d3a30" fill-rule="nonzero" id="path738"/>
   </g>
   <g id="g744" transform="translate(261.2843,227.5506)">
    <path d="m0,0l0.1,0c-0.01,0.08 -0.01,0.15 -0.02,0.23c0,0.02 0,0.03 0,0.04c-0.03,-0.09 -0.05,-0.18 -0.08,-0.27" fill="#4d3a30" fill-rule="nonzero" id="path742"/>
   </g>
   <g id="g748" transform="translate(262.6965,214.242)">
    <path d="m0,0c0,-0.03 0,-0.05 0,-0.08c0,0.03 0,0.05 0,0.08c-0.73,-0.03 -1.46,-0.05 -2.19,-0.05c-0.37,0 -0.73,0 -1.1,0.01c0,-0.01 0,-0.03 0,-0.04c0,0.01 0,0.03 0,0.04c-0.02,0 -0.04,0 -0.07,0l0,-65.72l1.49,-1.48l1.88,1.88l0,65.36c0,0 -0.01,0 -0.01,0" fill="#4d3a30" fill-rule="nonzero" id="path746"/>
   </g>
   <g id="g752" transform="translate(262.7035,145.1802)">
    <path d="m0,0l0,0.91l-0.91,-0.91l0.91,0z" fill="#4d3a30" fill-rule="nonzero" id="path750"/>
   </g>
   <g id="g756" transform="translate(259.3384,145.1802)">
    <path d="m0,0l0.51,0l-0.51,0.51l0,-0.51z" fill="#4d3a30" fill-rule="nonzero" id="path754"/>
   </g>
   <g id="g760" transform="translate(260.8247,146.9992)">
    <path d="m0,0l-1.49,1.49l0,-2.8l0.52,-0.51l1.94,0l0.91,0.91l0,2.79l-1.88,-1.88z" fill="#4d3a30" fill-rule="nonzero" id="path758"/>
   </g>
   <g id="g764" transform="translate(259.3384,214.2043)">
    <path d="m0,0c0.02,0 0.05,0 0.07,0c0,0.83 -0.03,1.66 -0.07,2.49l0,-2.49z" fill="#4d3a30" fill-rule="nonzero" id="path762"/>
   </g>
   <g id="g768" transform="translate(261.6143,224.2926)">
    <path d="m0,0c0,-0.31 -0.01,-0.51 -0.01,-0.58c0,-0.03 0,-0.05 0,-0.07c0,-0.41 0,-0.64 0,-0.66l-0.55,0.02l-0.55,-0.02c0,0.02 0,0.25 0,0.66c0,0.02 0,0.04 0,0.07c0,0.07 -0.01,0.27 -0.01,0.58c0,0.03 0,0.05 -0.01,0.08c-0.7,-3.28 -1.07,-6.68 -1.07,-10.17c0.36,-0.01 0.73,-0.01 1.09,-0.01c0.74,0 1.46,0.02 2.19,0.05c-0.01,3.47 -0.38,6.86 -1.08,10.13c0,-0.03 0,-0.05 0,-0.08" fill="#4d3a30" fill-rule="nonzero" id="path766"/>
   </g>
   <g id="g772" transform="translate(262.7035,214.2423)">
    <path d="m0,0l0,0.55c0,-0.19 -0.01,-0.37 -0.01,-0.55c0,0 0.01,0 0.01,0" fill="#4d3a30" fill-rule="nonzero" id="path770"/>
   </g>
   <g id="g776" transform="translate(261.0527,226.7212)">
    <path d="m0,0c0.07,0.28 0.15,0.55 0.23,0.83l-0.23,0l0,-0.83z" fill="#4d3a30" fill-rule="nonzero" id="path774"/>
   </g>
   <g id="g780" transform="translate(261.0527,227.5506)">
    <path d="m0,0l-0.23,0c0.08,-0.28 0.16,-0.55 0.23,-0.83l0,0l0,0.83z" fill="#4d3a30" fill-rule="nonzero" id="path778"/>
   </g>
   <g id="g784" transform="translate(259.4099,214.1641)">
    <path d="m0,0c0,0.01 0,0.03 0,0.04c0,0 0,0 0,0c0,-0.01 0,-0.03 0,-0.04" fill="#4d3a30" fill-rule="nonzero" id="path782"/>
   </g>
   <g id="g788" transform="translate(260.3081,227.3199)">
    <path d="m0,0c-0.01,0.07 -0.02,0.16 -0.03,0.23l-0.94,0l0,-10.86c0.05,-0.82 0.07,-1.65 0.07,-2.49c0,0 0,0 0,0c0,3.49 0.38,6.89 1.08,10.17c-0.02,0.73 -0.07,1.72 -0.18,2.95" fill="#4d3a30" fill-rule="nonzero" id="path786"/>
   </g>
   <g id="g792" transform="translate(260.5013,224.9582)">
    <path d="m0,0c-0.02,0.59 -0.08,1.39 -0.19,2.36c0.1,-1.22 0.15,-2.22 0.18,-2.95c0,0.01 0,0.01 0,0.01c0,0.17 0,0.36 0.01,0.58" fill="#4d3a30" fill-rule="nonzero" id="path790"/>
   </g>
   <g id="g796" transform="translate(260.505,224.6743)">
    <path d="m0,0c0,0.07 0,0.15 0,0.23c0,0.02 0,0.04 0,0.05c-0.01,-0.21 -0.01,-0.41 -0.01,-0.57c0,0.02 0,0.04 0.01,0.06c0,0.07 0,0.14 0,0.23l0,0z" fill="#4d3a30" fill-rule="nonzero" id="path794"/>
   </g>
   <g id="g800" transform="translate(260.505,224.67)">
    <path d="m0,0c0,-0.08 0,-0.16 0,-0.23c0,0 0,0.01 0,0.01l0,0.22z" fill="#4d3a30" fill-rule="nonzero" id="path798"/>
   </g>
   <g id="g804" transform="translate(260.505,224.6743)">
    <path d="m0,0l0,0c0,0 0,0 0,0c0,0 0,0 0,0" fill="#4d3a30" fill-rule="nonzero" id="path802"/>
   </g>
   <g id="g808" transform="translate(260.5051,224.6721)">
    <path d="m0,0c0,0 0,0 0,0l0,-0.22c0,0 0,0 0,0c0,0.07 0,0.14 0,0.22" fill="#4d3a30" fill-rule="nonzero" id="path806"/>
   </g>
   <g id="g812" transform="translate(260.5033,224.9047)">
    <path d="m0,0c0,-0.08 0,-0.16 0,-0.23l0,0.19c0,0.01 0,0.03 0,0.04" fill="#4d3a30" fill-rule="nonzero" id="path810"/>
   </g>
   <g id="g816" transform="translate(260.5062,224.8249)">
    <path d="m0,0c0,0.01 0,0.02 0,0.03l0,-0.18c0,0 0,0 0,0c0,0.05 0,0.1 0,0.15" fill="#4d3a30" fill-rule="nonzero" id="path814"/>
   </g>
   <g id="g820" transform="translate(260.5051,224.6721)">
    <path d="m0,0c0,-0.08 0,-0.15 0,-0.22c0,0.01 0.01,0.02 0.01,0.03c0,0.11 0,0.22 -0.01,0.34c0,-0.05 0,-0.1 0,-0.15" fill="#4d3a30" fill-rule="nonzero" id="path818"/>
   </g>
   <g id="g824" transform="translate(260.2766,227.5506)">
    <path d="m0,0c0.01,-0.08 0.02,-0.16 0.03,-0.23c0,0.07 -0.01,0.15 -0.02,0.23l-0.01,0z" fill="#4d3a30" fill-rule="nonzero" id="path822"/>
   </g>
   <g id="g828" transform="translate(260.5024,224.9922)">
    <path d="m0,0c-0.01,0.64 -0.02,1.5 -0.05,2.56l-0.17,0c0.01,-0.08 0.02,-0.16 0.03,-0.23c0.11,-0.97 0.17,-1.77 0.19,-2.36c0,0.01 0,0.02 0,0.03" fill="#4d3a30" fill-rule="nonzero" id="path826"/>
   </g>
   <g id="g832" transform="translate(260.5024,224.9922)">
    <path d="m0,0c0,-0.01 0,-0.02 0,-0.03c0,-0.02 0,-0.04 0,-0.06c0,0.03 0,0.06 0,0.09" fill="#4d3a30" fill-rule="nonzero" id="path830"/>
   </g>
   <g id="g836" transform="translate(260.505,227.5506)">
    <path d="m0,0l-0.05,0c0.03,-1.06 0.04,-1.92 0.05,-2.56c0,0.03 0,0.05 0,0.07l0,2.49z" fill="#4d3a30" fill-rule="nonzero" id="path834"/>
   </g>
   <g id="g840" transform="translate(260.505,224.8603)">
    <path d="m0,0l0,0.2c0,-0.02 0,-0.04 0,-0.07c0,-0.03 0,-0.06 0,-0.09c0,-0.01 0,-0.03 0,-0.04" fill="#4d3a30" fill-rule="nonzero" id="path838"/>
   </g>
   <g id="g844" transform="translate(260.5575,227.5506)">
    <path d="m0,0l-0.05,0l0,-2.49c0,0.05 0,0.09 0,0.13c0.01,0.62 0.02,1.41 0.05,2.36" fill="#4d3a30" fill-rule="nonzero" id="path842"/>
   </g>
   <g id="g848" transform="translate(260.5575,227.5506)">
    <path d="m0,0c-0.03,-0.95 -0.04,-1.74 -0.05,-2.36c0.03,0.62 0.09,1.42 0.21,2.36l-0.16,0z" fill="#4d3a30" fill-rule="nonzero" id="path846"/>
   </g>
   <g id="g852" transform="translate(260.5096,225.1926)">
    <path d="m0,0c0,-0.04 0,-0.09 -0.01,-0.13l0,-0.2c0.01,-0.01 0.01,-0.03 0.01,-0.04c0,0.12 0,0.24 0,0.37" fill="#4d3a30" fill-rule="nonzero" id="path850"/>
   </g>
   <g id="g856" transform="translate(260.7129,227.5506)">
    <path d="m0,0c-0.12,-0.94 -0.18,-1.74 -0.2,-2.36c-0.01,-0.13 -0.01,-0.25 -0.01,-0.37c0.01,-0.12 0.01,-0.23 0.01,-0.33c0,0.02 0.01,0.04 0.02,0.06c0.02,0.76 0.08,1.77 0.19,3l-0.01,0z" fill="#4d3a30" fill-rule="nonzero" id="path854"/>
   </g>
   <g id="g860" transform="translate(260.7203,227.5506)">
    <path d="m0,0c-0.11,-1.23 -0.17,-2.24 -0.19,-3c0.16,0.73 0.33,1.45 0.52,2.17c-0.07,0.28 -0.15,0.55 -0.23,0.83l-0.1,0z" fill="#4d3a30" fill-rule="nonzero" id="path858"/>
   </g>
   <g id="g864" transform="translate(262.6956,214.1641)">
    <path d="m0,0c0,0.03 0,0.05 0,0.08c0,0 0,0 0,0c0,-0.03 0,-0.05 0,-0.08" fill="#4d3a30" fill-rule="nonzero" id="path862"/>
   </g>
   <g id="g868" transform="translate(261.8286,227.5506)">
    <path d="m0,0c-0.01,-0.07 -0.02,-0.16 -0.03,-0.23c-0.11,-1.23 -0.16,-2.22 -0.18,-2.95c0.7,-3.27 1.07,-6.66 1.08,-10.13c0,0 0,0 0,0c0,0.18 0,0.37 0.01,0.55l0,12.76l-0.88,0z" fill="#4d3a30" fill-rule="nonzero" id="path866"/>
   </g>
   <g id="g872" transform="translate(261.6145,224.3828)">
    <path d="m0,0c0,0 0,-0.01 0,-0.01c0.03,0.72 0.08,1.72 0.18,2.95c-0.12,-0.97 -0.17,-1.77 -0.19,-2.36c0.01,-0.22 0.01,-0.41 0.01,-0.58" fill="#4d3a30" fill-rule="nonzero" id="path870"/>
   </g>
   <g id="g876" transform="translate(261.7975,227.3223)">
    <path d="m0,0c0.01,0.07 0.02,0.15 0.03,0.23l-0.01,0c-0.01,-0.08 -0.01,-0.16 -0.02,-0.23" fill="#4d3a30" fill-rule="nonzero" id="path874"/>
   </g>
   <g id="g880" transform="translate(261.6526,227.5506)">
    <path d="m0,0c-0.03,-1.05 -0.04,-1.92 -0.05,-2.56c0,-0.01 0,-0.02 0,-0.03c0.02,0.59 0.08,1.39 0.2,2.36c0,0.08 0.01,0.15 0.02,0.23l-0.17,0z" fill="#4d3a30" fill-rule="nonzero" id="path878"/>
   </g>
   <g id="g884" transform="translate(261.6003,225.0646)">
    <path d="m0,0c0,-0.02 0,-0.05 0,-0.07c0.01,0.63 0.02,1.5 0.05,2.56l-0.05,0l0,-2.49z" fill="#4d3a30" fill-rule="nonzero" id="path882"/>
   </g>
   <g id="g888" transform="translate(261.5956,225.192)">
    <path d="m0,0c0,-0.04 0,-0.09 0.01,-0.13l0,2.49l-0.06,0c0.03,-0.95 0.04,-1.75 0.05,-2.36" fill="#4d3a30" fill-rule="nonzero" id="path886"/>
   </g>
   <g id="g892" transform="translate(261.5956,225.192)">
    <path d="m0,0c-0.01,0.61 -0.02,1.41 -0.05,2.36l-0.15,0c0.11,-0.94 0.17,-1.74 0.2,-2.36" fill="#4d3a30" fill-rule="nonzero" id="path890"/>
   </g>
   <g id="g896" transform="translate(261.6003,224.6815)">
    <path d="m0,0l0,-0.01c0,-0.08 0,-0.16 0,-0.23c0.01,-0.02 0.01,-0.04 0.01,-0.06c0,0.17 0,0.36 -0.01,0.58c0,-0.02 0,-0.04 0,-0.06c0,-0.08 0,-0.15 0,-0.22" fill="#4d3a30" fill-rule="nonzero" id="path894"/>
   </g>
   <g id="g900" transform="translate(261.6019,224.9031)">
    <path d="m0,0c0,-0.01 0,-0.03 0,-0.04l0,-0.18c0,0.07 0,0.14 0,0.22" fill="#4d3a30" fill-rule="nonzero" id="path898"/>
   </g>
   <g id="g904" transform="translate(261.604,224.9582)">
    <path d="m0,0c0,0.01 0,0.02 0,0.03c0,-0.02 0,-0.06 0,-0.09c0,0.02 0,0.04 0,0.06" fill="#4d3a30" fill-rule="nonzero" id="path902"/>
   </g>
   <g id="g908" transform="translate(261.6003,224.8603)">
    <path d="m0,0c0,0.01 0,0.03 0,0.04c0,0.03 0,0.06 0,0.09c0,0.03 0,0.05 0,0.07l0,-0.2z" fill="#4d3a30" fill-rule="nonzero" id="path906"/>
   </g>
   <g id="g912" transform="translate(261.6003,224.67)">
    <path d="m0,0l0,0.01c0,0 0,0 0,0c0,-0.01 0,-0.01 0,-0.01" fill="#4d3a30" fill-rule="nonzero" id="path910"/>
   </g>
   <g id="g916" transform="translate(261.6002,224.6758)">
    <path d="m0,0c0,0 0,0 0,0.01l0,0.17c0,-0.01 0,-0.02 0,-0.03c0,-0.05 0,-0.1 0,-0.15" fill="#4d3a30" fill-rule="nonzero" id="path914"/>
   </g>
   <g id="g920" transform="translate(261.5991,224.8249)">
    <path d="m0,0c0,0.01 0,0.02 0,0.03l0,0.21c0,0.04 0,0.08 0,0.13c0,-0.13 0,-0.26 0,-0.37" fill="#4d3a30" fill-rule="nonzero" id="path918"/>
   </g>
   <g id="g924" transform="translate(261.6003,224.4481)">
    <path d="m0,0c0,0 0,0 0,-0.01c0,0.08 0,0.15 0,0.23l0,-0.22z" fill="#4d3a30" fill-rule="nonzero" id="path922"/>
   </g>
   <g id="g928" transform="translate(261.5991,224.4534)">
    <path d="m0,0c0,0 0,0 0,-0.01l0,0.23c0,0 0,0 0,0c0,-0.08 0,-0.15 0,-0.22" fill="#4d3a30" fill-rule="nonzero" id="path926"/>
   </g>
   <g id="g932" transform="translate(261.5991,224.4534)">
    <path d="m0,0c0,0.07 0,0.14 0,0.22c0,0.05 0,0.1 0,0.15c0,-0.12 -0.01,-0.23 -0.01,-0.34c0,-0.01 0.01,-0.02 0.01,-0.03" fill="#4d3a30" fill-rule="nonzero" id="path930"/>
   </g>
   <g id="g936" transform="translate(261.3851,227.5506)">
    <path d="m0,0c0.11,-1.23 0.17,-2.24 0.19,-3c0.01,-0.02 0.01,-0.04 0.02,-0.06c0,0.1 0,0.21 0,0.33c0,0.12 0,0.24 0,0.37c-0.03,0.62 -0.09,1.42 -0.2,2.36l-0.01,0z" fill="#4d3a30" fill-rule="nonzero" id="path934"/>
   </g>
   <g id="g940" transform="translate(261.2843,227.5506)">
    <path d="m0,0c-0.08,-0.28 -0.16,-0.55 -0.23,-0.83l0,0l0,0c0.19,-0.72 0.36,-1.44 0.52,-2.17c-0.02,0.76 -0.08,1.77 -0.19,3l-0.1,0z" fill="#4d3a30" fill-rule="nonzero" id="path938"/>
   </g>
   <g id="g944" transform="translate(261.6143,224.2926)">
    <path d="m0,0c0,0.03 0,0.05 0,0.08c0,0 0,0.01 0,0.01c0,-0.03 0,-0.06 0,-0.09" fill="#4d3a30" fill-rule="nonzero" id="path942"/>
   </g>
   <g id="g948" transform="translate(260.505,223.6439)">
    <path d="m0,0c-0.01,-0.41 0,-0.64 0,-0.66l0.55,0.01l-0.55,0.02c0,0.02 0.01,0.24 0,0.63" fill="#4d3a30" fill-rule="nonzero" id="path946"/>
   </g>
   <g id="g952" transform="translate(261.6003,223.6434)">
    <path d="m0,0c0,0.02 0,0.04 0,0.07c0,-0.01 0,-0.02 0,-0.03c0,-0.01 0,-0.03 0,-0.04" fill="#4d3a30" fill-rule="nonzero" id="path950"/>
   </g>
   <g id="g956" transform="translate(260.5042,223.7082)">
    <path d="m0,0c0,0.17 -0.01,0.36 -0.01,0.58c0,-0.3 0.01,-0.5 0.01,-0.58" fill="#4d3a30" fill-rule="nonzero" id="path954"/>
   </g>
   <g id="g960" transform="translate(261.6003,223.0145)">
    <path d="m0,0l-0.55,-0.02l0.55,-0.01c0,0.02 0.01,0.25 0,0.66c-0.01,-0.39 0,-0.61 0,-0.63" fill="#4d3a30" fill-rule="nonzero" id="path958"/>
   </g>
   <g id="g964" transform="translate(260.4883,224.3711)">
    <path d="m0,0c0,-0.03 0,-0.05 0,-0.08c0,0.03 0,0.06 0,0.09c0,0 0,-0.01 0,-0.01" fill="#4d3a30" fill-rule="nonzero" id="path962"/>
   </g>
   <g id="g968" transform="translate(260.5042,223.7082)">
    <path d="m0,0c0,-0.02 0,-0.04 0,-0.06c0,0.01 0,0.02 0,0.04c0,0 0,0.01 0,0.02" fill="#4d3a30" fill-rule="nonzero" id="path966"/>
   </g>
   <g id="g972" transform="translate(261.5994,223.6785)">
    <path d="m0,0l-0.55,0.03l-0.54,-0.03c0,0 0,0.01 0,0.01c0,-0.02 0,-0.03 0,-0.05c0,-0.38 0,-0.6 0,-0.62l0.54,-0.02l0.55,0.02c0,0.02 0,0.24 0,0.62c0,0.02 0,0.03 0,0.05c0,0 0,-0.01 0,-0.01" fill="#4d3a30" fill-rule="nonzero" id="path970"/>
   </g>
   <g id="g976" transform="translate(260.5058,223.7054)">
    <path d="m0,0l0,0c0,0.03 0,0.29 0,0.74c-0.01,-0.02 -0.01,-0.04 -0.02,-0.06c0,-0.03 0,-0.06 0,-0.09c0.01,-0.23 0.02,-0.42 0.02,-0.59c0,-0.01 0,-0.01 0,-0.02c0,0.01 0,0.01 0,0.02" fill="#4d3a30" fill-rule="nonzero" id="path974"/>
   </g>
   <g id="g980" transform="translate(260.505,223.7129)">
    <path d="m0,0l0,0.01l0,0.72c0,0 0,0 0,0c0,-0.45 0,-0.71 0,-0.74l0,0c0,0 0,0.01 0,0.01l0,0z" fill="#4d3a30" fill-rule="nonzero" id="path978"/>
   </g>
   <g id="g984" transform="translate(260.5058,223.7054)">
    <path d="m0,0c0,-0.01 0,-0.01 0,-0.02c0,0 0,-0.01 0,-0.01l0.55,0.04l-0.01,0l-0.54,-0.01z" fill="#4d3a30" fill-rule="nonzero" id="path982"/>
   </g>
   <g id="g988" transform="translate(261.0491,223.7129)">
    <path d="m0,0l-0.54,0c0,0 0,-0.01 0,-0.01l0.54,0.01l0,0z" fill="#4d3a30" fill-rule="nonzero" id="path986"/>
   </g>
   <g id="g992" transform="translate(260.505,223.7203)">
    <path d="m0,0l0,-0.01l0,0c0,0 0,0.01 0,0.01l0,0z" fill="#4d3a30" fill-rule="nonzero" id="path990"/>
   </g>
   <g id="g996" transform="translate(260.5061,224.4529)">
    <path d="m0,0c0,0 0,0 0,-0.01l0,-0.72c0,0.03 0,0.28 0,0.73" fill="#4d3a30" fill-rule="nonzero" id="path994"/>
   </g>
   <g id="g1000" transform="translate(260.506,223.7203)">
    <path d="m0,0c0,0 0,-0.01 0,-0.01l0.54,0l0,0l-0.54,0.01z" fill="#4d3a30" fill-rule="nonzero" id="path998"/>
   </g>
   <g id="g1004" transform="translate(260.5064,223.7468)">
    <path d="m0,0l0,0c0,0 0,0.01 0,0.02c0,0.11 0.01,0.25 0.01,0.39c0,0.1 0,0.21 0,0.33c0,-0.01 -0.01,-0.02 -0.01,-0.03c0,-0.45 0,-0.71 0,-0.74l0,0c0,0.01 0,0.02 0,0.03" fill="#4d3a30" fill-rule="nonzero" id="path1002"/>
   </g>
   <g id="g1008" transform="translate(261.0482,223.713)">
    <path d="m0,0l-0.54,0.03c0,0 0,-0.01 0,-0.02l0.54,-0.01z" fill="#4d3a30" fill-rule="nonzero" id="path1006"/>
   </g>
   <g id="g1012" transform="translate(260.5154,224.1574)">
    <path d="m0,0c0,-0.14 -0.01,-0.28 -0.01,-0.4c0,0.05 0.01,0.18 0.01,0.4" fill="#4d3a30" fill-rule="nonzero" id="path1010"/>
   </g>
   <g id="g1016" transform="translate(261.6143,224.2926)">
    <path d="m0,0c-0.01,-0.22 -0.01,-0.42 -0.01,-0.58c0,0.07 0.01,0.27 0.01,0.58" fill="#4d3a30" fill-rule="nonzero" id="path1014"/>
   </g>
   <g id="g1020" transform="translate(261.6014,224.4429)">
    <path d="m0,0c0,-0.45 0,-0.71 0,-0.74l0,0c0,0 0,-0.01 0,-0.02c0,0.01 0,0.02 0,0.03c0,0.16 0.01,0.36 0.01,0.58c0,0.03 0,0.06 0,0.09c0,0.02 -0.01,0.04 -0.01,0.06" fill="#4d3a30" fill-rule="nonzero" id="path1018"/>
   </g>
   <g id="g1024" transform="translate(261.6003,223.7203)">
    <path d="m0,0l0,-0.01l0,0c0,0 0,0 0,0l0,0c0,0.02 0,0.28 0,0.73c0,0 0,0.01 0,0.01l0,-0.73z" fill="#4d3a30" fill-rule="nonzero" id="path1022"/>
   </g>
   <g id="g1028" transform="translate(261.5994,223.7129)">
    <path d="m0,0l0,0l0,0.01l0,0c0,0 0,-0.01 0,-0.01" fill="#4d3a30" fill-rule="nonzero" id="path1026"/>
   </g>
   <g id="g1032" transform="translate(261.6003,223.7203)">
    <path d="m0,0l0,0.73c0,0 0,0 0,0c0,-0.45 0,-0.7 0,-0.73" fill="#4d3a30" fill-rule="nonzero" id="path1030"/>
   </g>
   <g id="g1036" transform="translate(261.5991,224.4534)">
    <path d="m0,0c0,0.01 -0.01,0.02 -0.01,0.03c0,-0.12 0,-0.23 0,-0.33c0,-0.14 0.01,-0.27 0.01,-0.39c0,-0.01 0,-0.01 0,-0.02l0,0c0,0 0,-0.01 0,-0.02l0,0c0,0.02 0,0.28 0,0.73" fill="#4d3a30" fill-rule="nonzero" id="path1034"/>
   </g>
   <g id="g1040" transform="translate(261.5994,223.7468)">
    <path d="m0,0c0,0 0,0.01 0,0.02c0,-0.01 0,-0.01 0,-0.02l0,0z" fill="#4d3a30" fill-rule="nonzero" id="path1038"/>
   </g>
   <g id="g1044" transform="translate(261.5899,224.1584)">
    <path d="m0,0c0,0.09 0,0.21 0,0.33c0,0.02 -0.01,0.04 -0.01,0.06c0,-0.14 0.01,-0.27 0.01,-0.39" fill="#4d3a30" fill-rule="nonzero" id="path1042"/>
   </g>
   <g id="g1048" transform="translate(261.0526,223.7127)">
    <path d="m0,0l0.55,-0.03c0,0 0,0 0,0c0,0.01 0,0.01 0,0.02l-0.55,0.01l0,0z" fill="#4d3a30" fill-rule="nonzero" id="path1046"/>
   </g>
   <g id="g1052" transform="translate(261.0526,223.7129)">
    <path d="m0,0l0,0l0,0l0,0l0,0z" fill="#4d3a30" fill-rule="nonzero" id="path1050"/>
   </g>
   <g id="g1056" transform="translate(261.0491,223.7129)">
    <path d="m0,0l0,0l0,0l0,0l0,0z" fill="#4d3a30" fill-rule="nonzero" id="path1054"/>
   </g>
   <g id="g1060" transform="translate(261.0562,223.7129)">
    <path d="m0,0l0,0l0.54,-0.01c0,0 0,0.01 0,0.01l-0.54,0z" fill="#4d3a30" fill-rule="nonzero" id="path1058"/>
   </g>
   <g id="g1064" transform="translate(261.057,223.713)">
    <path d="m0,0l0,0l0.54,0c0,0 0,0.01 0,0.01l-0.54,-0.01z" fill="#4d3a30" fill-rule="nonzero" id="path1062"/>
   </g>
   <g id="g1068" transform="translate(261.5993,223.7203)">
    <path d="m0,0c0,0.01 0,0.02 0,0.03l-0.54,-0.04l0.54,0.01z" fill="#4d3a30" fill-rule="nonzero" id="path1066"/>
   </g>
   <g id="g1072" transform="translate(261.5899,224.1584)">
    <path d="m0,0c0,-0.22 0.01,-0.36 0.01,-0.4c0,0.12 -0.01,0.26 -0.01,0.4" fill="#4d3a30" fill-rule="nonzero" id="path1070"/>
   </g>
   <g id="g1076" transform="translate(260.5154,224.1574)">
    <path d="m0,0c0,0.12 0.01,0.25 0.01,0.39c0,-0.02 -0.01,-0.04 -0.01,-0.06c0,-0.12 0,-0.24 0,-0.33" fill="#4d3a30" fill-rule="nonzero" id="path1074"/>
   </g>
   <g id="g1080" transform="translate(260.5064,223.7468)">
    <path d="m0,0c0,0.01 0,0.01 0,0.02c0,-0.01 0,-0.02 0,-0.02l0,0z" fill="#4d3a30" fill-rule="nonzero" id="path1078"/>
   </g>
   <g id="g1084" transform="translate(261.0526,223.7129)">
    <path d="m0,0l0,0l0,0l0,0l0,0z" fill="#4d3a30" fill-rule="nonzero" id="path1082"/>
   </g>
   <g id="g1088" transform="translate(261.5989,223.7468)">
    <path d="m0,0c0,0.01 0,0.01 0,0.02c0,0.04 -0.01,0.17 -0.01,0.39c0,0.13 -0.01,0.25 -0.01,0.4c-0.16,0.72 -0.33,1.45 -0.53,2.16l0,-3l0,3l0,0c-0.19,-0.71 -0.36,-1.44 -0.52,-2.16c-0.01,-0.15 -0.01,-0.28 -0.01,-0.4c0,-0.22 -0.01,-0.35 -0.01,-0.39c0,-0.01 0,-0.01 0,-0.02l0.54,-0.03l0,0l0.01,0l0.54,0.03z" fill="#4d3a30" fill-rule="nonzero" id="path1086"/>
   </g>
   <g id="g1092" transform="translate(213.5305,261.164)">
    <path d="m0,0c0,0.64 0.02,1.27 0.04,1.9l-64.99,0l-1.68,-1.68l1.68,-1.69l64.98,0c-0.02,0.49 -0.03,0.98 -0.03,1.47" fill="#4d3a30" fill-rule="nonzero" id="path1090"/>
   </g>
   <g id="g1096" transform="translate(148.5838,263.0616)">
    <path d="m0,0l-2.72,0l0,-3.37l2.72,0l-1.68,1.69l1.68,1.68z" fill="#4d3a30" fill-rule="nonzero" id="path1094"/>
   </g>
   <g id="g1100" transform="translate(213.9522,262.9075)">
    <path d="m0,0c1.26,0 2.5,0.05 3.73,0.15l-4.11,0c-0.02,-0.63 -0.04,-1.26 -0.04,-1.89c0,-0.5 0.01,-0.98 0.02,-1.47l2.99,0c3.43,0.18 6.76,0.71 9.97,1.57c-4.01,1.07 -8.22,1.64 -12.56,1.64" fill="#4d3a30" fill-rule="nonzero" id="path1098"/>
   </g>
   <g id="g1104" transform="translate(217.6839,263.0616)">
    <path d="m0,0c-1.23,-0.1 -2.48,-0.15 -3.73,-0.15c4.34,0 8.55,-0.58 12.55,-1.65l0,1.8l-8.82,0z" fill="#4d3a30" fill-rule="nonzero" id="path1102"/>
   </g>
   <g id="g1108" transform="translate(226.5089,261.2646)">
    <path d="m0,0c-3.21,-0.86 -6.54,-1.39 -9.96,-1.57l9.96,0l0,1.57z" fill="#4d3a30" fill-rule="nonzero" id="path1106"/>
   </g>
   <g id="g1112" transform="translate(73.8742,304.8908)">
    <path d="m0,0c-4.74,4.74 -11.05,7.35 -17.75,7.35c-3.29,0 -6.48,-0.63 -9.44,-1.83c-0.39,-0.96 -0.85,-1.9 -1.36,-2.81c8.74,4.61 19.8,3.24 27.15,-4.11l42.12,-42.11l-42.12,-42.12c-7.5,-7.5 -18.86,-8.76 -27.68,-3.81c0.56,-0.95 1.05,-1.93 1.48,-2.93c3.07,-1.31 6.4,-2.01 9.85,-2.01c6.7,0 13.01,2.61 17.75,7.36l43.51,43.51l-43.51,43.51z" fill="#4d3a30" fill-rule="nonzero" id="path1110"/>
   </g>
   <g id="g1116" transform="translate(56.121,308.2949)">
    <path d="m0,0c5.65,0 10.96,-2.2 14.96,-6.2l39.11,-39.11l2.64,0l0,-3.36l-2.79,0l-38.96,-38.97c-4,-3.99 -9.31,-6.19 -14.96,-6.19c-5.65,0 -10.96,2.2 -14.96,6.2l-9.12,9.11c-0.07,-0.08 -0.14,-0.16 -0.21,-0.24l9.1,-9.1c1.53,-1.53 2.82,-3.21 3.87,-4.98c8.81,-4.96 20.18,-3.69 27.68,3.81l42.11,42.11l-42.11,42.12c-7.35,7.35 -18.42,8.72 -27.15,4.11c-1.12,-1.99 -2.51,-3.85 -4.17,-5.51c4,4 9.31,6.2 14.96,6.2" fill="#4d3a30" fill-rule="nonzero" id="path1114"/>
   </g>
   <g id="g1120" transform="translate(39.5362,186.3219)">
    <path d="m0,0l-40.24,-40.24l0,-0.9l-0.9,0l-0.97,-0.97l-0.98,0.97l-0.51,0l0,0.51l-40.63,40.63c-7.39,7.39 -8.73,18.54 -4.03,27.29c-0.91,-0.5 -1.84,-0.94 -2.8,-1.32c-3.76,-9.1 -1.95,-19.98 5.43,-27.37l43.51,-43.51l43.52,43.51c7.44,7.45 9.22,18.45 5.34,27.6c-1.01,0.42 -1.98,0.91 -2.92,1.47c4.95,-8.81 3.68,-20.17 -3.82,-27.67" fill="#4d3a30" fill-rule="nonzero" id="path1118"/>
   </g>
   <g id="g1124" transform="translate(39.7644,219.2637)">
    <path d="m0,0l-9.07,9.07c-0.08,-0.08 -0.15,-0.15 -0.23,-0.23l9.07,-9.07c1.54,-1.53 2.81,-3.23 3.82,-5.04c0.94,-0.56 1.91,-1.05 2.92,-1.48c-0.43,1 -0.92,1.99 -1.48,2.94c-1.8,1.01 -3.5,2.28 -5.03,3.81" fill="#4d3a30" fill-rule="nonzero" id="path1122"/>
   </g>
   <g id="g1128" transform="translate(31.8302,229.5339)">
    <path d="m0,0c-0.37,-0.41 -0.75,-0.81 -1.14,-1.2l9.07,-9.07c1.54,-1.53 3.23,-2.8 5.04,-3.81c-1.05,1.78 -2.34,3.45 -3.87,4.98l-9.1,9.1z" fill="#4d3a30" fill-rule="nonzero" id="path1126"/>
   </g>
   <g id="g1132" transform="translate(29.2851,226.9505)">
    <path d="m0,0c-0.08,-0.07 -0.16,-0.15 -0.24,-0.22l9.1,-9.09c8.24,-8.25 8.24,-21.67 0,-29.92l-38.85,-38.84l0,-2.8l40.24,40.24c7.5,7.5 8.77,18.86 3.82,27.67c-1.8,1.07 -3.47,2.36 -4.99,3.88l-9.08,9.08z" fill="#4d3a30" fill-rule="nonzero" id="path1130"/>
   </g>
   <g id="g1136" transform="translate(29.2851,226.9505)">
    <path d="m0,0l9.08,-9.08c1.52,-1.52 3.19,-2.81 4.99,-3.88c-1.02,1.81 -2.28,3.51 -3.82,5.04l-9.07,9.07c-0.38,-0.39 -0.78,-0.77 -1.18,-1.15" fill="#4d3a30" fill-rule="nonzero" id="path1134"/>
   </g>
   <g id="g1140" transform="translate(15.3605,269.5049)">
    <path d="m0,0c0.38,0.42 0.77,0.83 1.16,1.24l0.79,-0.76c-0.36,-0.38 -0.72,-0.75 -1.07,-1.13c2.57,-1.86 5.31,-3.47 8.21,-4.8c0.7,0.41 1.4,0.81 2.13,1.21l0.53,-0.96c-0.49,-0.26 -0.96,-0.53 -1.43,-0.8c2.1,-0.89 4.28,-1.64 6.51,-2.24l0,1.72l9.91,0c-10.81,0.63 -20.62,5.05 -28.11,11.94l-2.32,-2.32c1.18,-1.09 2.41,-2.13 3.69,-3.1" fill="#4d3a30" fill-rule="nonzero" id="path1138"/>
   </g>
   <g id="g1144" transform="translate(1.2109,260.6103)">
    <path d="m0,0l0.91,-0.91c0.33,1.48 0.7,2.97 1.09,4.45l-1.51,-1.52c-0.17,-0.67 -0.33,-1.35 -0.49,-2.02" fill="#4d3a30" fill-rule="nonzero" id="path1142"/>
   </g>
   <g id="g1148" transform="translate(1.1236,260.2408)">
    <path d="m0,0l0.91,-0.91c0.03,0.12 0.06,0.25 0.09,0.37l-0.91,0.91c-0.03,-0.12 -0.06,-0.25 -0.09,-0.37" fill="#4d3a30" fill-rule="nonzero" id="path1146"/>
   </g>
   <g id="g1152" transform="translate(1.6967,262.634)">
    <path d="m0,0l1.52,1.52c0.35,1.31 0.72,2.62 1.12,3.92l-1.62,-1.62c-0.36,-1.27 -0.7,-2.54 -1.02,-3.82" fill="#4d3a30" fill-rule="nonzero" id="path1150"/>
   </g>
   <g id="g1156" transform="translate(0.1532,255.6259)">
    <path d="m0,0c-0.88,-4.58 -1.51,-9.04 -1.96,-13.11l0,-8.5c0.16,0.89 0.35,1.81 0.56,2.77c0.41,5.15 1.11,11.39 2.33,17.91l-0.93,0.93z" fill="#4d3a30" fill-rule="nonzero" id="path1154"/>
   </g>
   <g id="g1160" transform="translate(1.544,257.0277)">
    <path d="m0,0c0.03,0.13 0.05,0.25 0.08,0.38l-0.92,0.92c-0.03,-0.13 -0.06,-0.25 -0.08,-0.38l0.92,-0.92z" fill="#4d3a30" fill-rule="nonzero" id="path1158"/>
   </g>
   <g id="g1164" transform="translate(1.6209,257.4072)">
    <path d="m0,0c0.13,0.64 0.27,1.28 0.42,1.92l-0.92,0.91c-0.14,-0.64 -0.28,-1.27 -0.42,-1.91l0.92,-0.92z" fill="#4d3a30" fill-rule="nonzero" id="path1162"/>
   </g>
   <g id="g1168" transform="translate(0.1532,255.6259)">
    <path d="m0,0l0.93,-0.93c0.03,0.12 0.05,0.25 0.08,0.38l-0.93,0.93c-0.03,-0.13 -0.06,-0.25 -0.08,-0.38" fill="#4d3a30" fill-rule="nonzero" id="path1166"/>
   </g>
   <g id="g1172" transform="translate(0.6212,257.9504)">
    <path d="m0,0c-0.14,-0.65 -0.27,-1.3 -0.39,-1.94l0.93,-0.93c0.12,0.64 0.25,1.29 0.38,1.95l-0.92,0.92z" fill="#4d3a30" fill-rule="nonzero" id="path1170"/>
   </g>
   <g id="g1176" transform="translate(6.6202,255.2009)">
    <path d="m0,0c2.44,4.59 5.58,9.24 9.63,13.65c-0.3,0.21 -0.6,0.43 -0.89,0.65c-3.99,-4.36 -7.11,-8.95 -9.55,-13.49l0.81,-0.81z" fill="#4d3a30" fill-rule="nonzero" id="path1174"/>
   </g>
   <g id="g1180" transform="translate(6.4611,254.9033)">
    <path d="m0,0c0.05,0.1 0.11,0.2 0.16,0.3l-0.81,0.8c-0.05,-0.09 -0.11,-0.19 -0.16,-0.29l0.81,-0.81z" fill="#4d3a30" fill-rule="nonzero" id="path1178"/>
   </g>
   <g id="g1184" transform="translate(3.8076,251.9715)">
    <path d="m0,0c-2.5,-5.46 -4.07,-10.7 -5.06,-15.18c-0.09,-1.23 -0.17,-2.4 -0.24,-3.49c0.41,1.41 0.93,2.94 1.61,4.56c0.95,4.01 2.38,8.56 4.51,13.29l-0.82,0.82z" fill="#4d3a30" fill-rule="nonzero" id="path1182"/>
   </g>
   <g id="g1188" transform="translate(4.7075,253.864)">
    <path d="m0,0l0.82,-0.82c0.05,0.11 0.1,0.21 0.15,0.31l-0.82,0.81c-0.05,-0.1 -0.1,-0.2 -0.15,-0.3" fill="#4d3a30" fill-rule="nonzero" id="path1186"/>
   </g>
   <g id="g1192" transform="translate(5.6741,253.3541)">
    <path d="m0,0c0.25,0.52 0.52,1.03 0.79,1.55l-0.81,0.81c-0.28,-0.52 -0.54,-1.03 -0.8,-1.55l0.82,-0.81z" fill="#4d3a30" fill-rule="nonzero" id="path1190"/>
   </g>
   <g id="g1196" transform="translate(3.8076,251.9715)">
    <path d="m0,0l0.82,-0.82c0.05,0.1 0.1,0.21 0.15,0.31l-0.83,0.82c-0.04,-0.1 -0.09,-0.2 -0.14,-0.31" fill="#4d3a30" fill-rule="nonzero" id="path1194"/>
   </g>
   <g id="g1200" transform="translate(3.951,252.2848)">
    <path d="m0,0l0.82,-0.82c0.24,0.52 0.49,1.05 0.75,1.58l-0.81,0.82c-0.26,-0.53 -0.52,-1.06 -0.76,-1.58" fill="#4d3a30" fill-rule="nonzero" id="path1198"/>
   </g>
   <g id="g1204" transform="translate(9.558,252.2631)">
    <path d="m0,0l0.78,-0.78c3.76,4.06 8.74,8.21 15.35,12.02c-0.42,0.18 -0.83,0.36 -1.23,0.55c-6.35,-3.75 -11.2,-7.81 -14.9,-11.79" fill="#4d3a30" fill-rule="nonzero" id="path1202"/>
   </g>
   <g id="g1208" transform="translate(9.3401,252.0242)">
    <path d="m0,0l0.77,-0.77c0.08,0.07 0.15,0.16 0.22,0.23l-0.77,0.78c-0.08,-0.08 -0.15,-0.16 -0.22,-0.24" fill="#4d3a30" fill-rule="nonzero" id="path1206"/>
   </g>
   <g id="g1212" transform="translate(0.2223,238.1159)">
    <path d="m0,0c-0.04,-0.09 -0.07,-0.17 -0.11,-0.26c-0.68,-2.89 -1.13,-5.51 -1.41,-7.71c0.13,0.39 0.27,0.77 0.42,1.16c0.45,1.9 1.13,4.09 2.13,6.44c1.31,3.06 3.29,6.68 6.29,10.49l-0.78,0.78c-3.13,-3.96 -5.19,-7.72 -6.54,-10.9" fill="#4d3a30" fill-rule="nonzero" id="path1210"/>
   </g>
   <g id="g1216" transform="translate(8.0259,250.5456)">
    <path d="m0,0l0.78,-0.78c0.07,0.08 0.14,0.17 0.21,0.25l-0.78,0.77c-0.07,-0.08 -0.14,-0.16 -0.21,-0.24" fill="#4d3a30" fill-rule="nonzero" id="path1214"/>
   </g>
   <g id="g1220" transform="translate(8.2386,250.7896)">
    <path d="m0,0l0.77,-0.77c0.36,0.41 0.73,0.82 1.11,1.23l-0.78,0.78c-0.38,-0.42 -0.75,-0.83 -1.1,-1.24" fill="#4d3a30" fill-rule="nonzero" id="path1218"/>
   </g>
   <g id="g1224" transform="translate(6.7656,249.0135)">
    <path d="m0,0l0.78,-0.78c0.07,0.09 0.13,0.17 0.2,0.26l-0.78,0.77c-0.06,-0.08 -0.13,-0.17 -0.2,-0.25" fill="#4d3a30" fill-rule="nonzero" id="path1222"/>
   </g>
   <g id="g1228" transform="translate(6.9692,249.2666)">
    <path d="m0,0l0.78,-0.78c0.33,0.43 0.69,0.85 1.05,1.28l-0.77,0.78c-0.37,-0.43 -0.72,-0.85 -1.06,-1.28" fill="#4d3a30" fill-rule="nonzero" id="path1226"/>
   </g>
   <g id="g1232" transform="translate(27.1051,264.3095)">
    <path d="m0,0l-0.53,0.96c-0.73,-0.4 -1.43,-0.81 -2.12,-1.22c0.41,-0.18 0.82,-0.37 1.23,-0.54c0.46,0.27 0.94,0.53 1.42,0.8" fill="#4d3a30" fill-rule="nonzero" id="path1230"/>
   </g>
   <g id="g1236" transform="translate(-1.7067,228.9263)">
    <path d="m0,0c0.13,0.41 0.27,0.81 0.41,1.22c0.28,2.2 0.72,4.82 1.41,7.72c-0.67,-1.62 -1.2,-3.15 -1.61,-4.57c-0.09,-1.63 -0.16,-3.1 -0.21,-4.37" fill="#4d3a30" fill-rule="nonzero" id="path1234"/>
   </g>
   <g id="g1240" transform="translate(44.0476,259.6129)">
    <path d="m0,0c0.23,0 0.47,0.01 0.7,0.01l-0.7,0c0,0 0,-0.01 0,-0.01" fill="#4d3a30" fill-rule="nonzero" id="path1238"/>
   </g>
   <g id="g1244" transform="translate(32.1927,259.6218)">
    <path d="m0,0l0,1.64c-7.72,-2.06 -14.69,-5.97 -20.41,-11.23l2.33,-2.32c7.92,7.25 18.42,11.73 29.94,11.9c0,0 0,0.01 0,0.01l-11.86,0z" fill="#4d3a30" fill-rule="nonzero" id="path1242"/>
   </g>
   <g id="g1248" transform="translate(11.7875,250.0334)">
    <path d="m0,0c-0.08,-0.07 -0.16,-0.15 -0.24,-0.22l2.32,-2.32c0.08,0.07 0.16,0.15 0.24,0.22l-2.32,2.32z" fill="#4d3a30" fill-rule="nonzero" id="path1246"/>
   </g>
   <g id="g1252" transform="translate(-1.5752,227.5506)">
    <path d="m0,0l0.88,0l0,-12.76c0.15,11.49 4.59,21.97 11.79,29.9l-2.32,2.32c-4.15,-4.54 -7.45,-9.86 -9.66,-15.71c-0.34,-1.42 -0.55,-2.68 -0.69,-3.75" fill="#4d3a30" fill-rule="nonzero" id="path1250"/>
   </g>
   <g id="g1256" transform="translate(10.1328,248.4388)">
    <path d="m0,0l2.32,-2.32c0.08,0.08 0.15,0.15 0.23,0.23l-2.32,2.32c-0.08,-0.08 -0.15,-0.15 -0.23,-0.23" fill="#4d3a30" fill-rule="nonzero" id="path1254"/>
   </g>
   <g id="g1260" transform="translate(10.362,248.6662)">
    <path d="m0,0l2.32,-2.32c0.39,0.39 0.79,0.77 1.19,1.15l-2.32,2.32c-0.4,-0.38 -0.8,-0.76 -1.19,-1.15" fill="#4d3a30" fill-rule="nonzero" id="path1258"/>
   </g>
   <g id="g1264" transform="translate(8.7713,247.0078)">
    <path d="m0,0l2.32,-2.32c0.07,0.08 0.15,0.16 0.22,0.24l-2.32,2.32c-0.08,-0.08 -0.15,-0.16 -0.22,-0.24" fill="#4d3a30" fill-rule="nonzero" id="path1262"/>
   </g>
   <g id="g1268" transform="translate(8.9886,247.2472)">
    <path d="m0,0l2.32,-2.32c0.38,0.4 0.76,0.8 1.14,1.19l-2.32,2.32c-0.38,-0.39 -0.77,-0.79 -1.14,-1.19" fill="#4d3a30" fill-rule="nonzero" id="path1266"/>
   </g>
   <g id="g1272" transform="translate(44.0399,262.9164)">
    <path d="m0,0c0.24,0 0.47,-0.01 0.71,-0.01c-0.24,0 -0.47,-0.01 -0.71,-0.01c0.02,-0.58 0.04,-1.15 0.04,-1.73c0,-0.51 -0.02,-1.02 -0.03,-1.53c0.23,-0.01 0.47,-0.01 0.7,-0.01l65.29,0l1.76,1.75l-1.61,1.61l-66.15,0c0,-0.02 0,-0.05 0,-0.07" fill="#4d3a30" fill-rule="nonzero" id="path1270"/>
   </g>
   <g id="g1276" transform="translate(110.0431,259.6218)">
    <path d="m0,0l2.79,0l0,3.37l-2.64,0l1.61,-1.61l-1.76,-1.76z" fill="#4d3a30" fill-rule="nonzero" id="path1274"/>
   </g>
   <g id="g1280" transform="translate(44.0373,262.9868)">
    <path d="m0,0l-1.94,0c0.65,-0.04 1.29,-0.06 1.94,-0.07c0,0.02 0,0.05 0,0.07" fill="#4d3a30" fill-rule="nonzero" id="path1278"/>
   </g>
   <g id="g1284" transform="translate(44.0484,259.6333)">
    <path d="m0,0c0.02,0.51 0.03,1.02 0.03,1.53c0,0.58 -0.02,1.16 -0.04,1.73c-4.09,-0.06 -8.06,-0.62 -11.85,-1.63c3.8,-1.01 7.77,-1.57 11.86,-1.63" fill="#4d3a30" fill-rule="nonzero" id="path1282"/>
   </g>
   <g id="g1288" transform="translate(44.7494,262.9075)">
    <path d="m0,0c-0.24,0 -0.47,0.01 -0.71,0.01c0,-0.01 0,-0.02 0,-0.02c0.24,0 0.47,0.01 0.71,0.01" fill="#4d3a30" fill-rule="nonzero" id="path1286"/>
   </g>
   <g id="g1292" transform="translate(32.1927,261.2646)">
    <path d="m0,0c3.79,1.01 7.76,1.57 11.85,1.63c0,0.01 0,0.02 0,0.02c-0.65,0.01 -1.3,0.03 -1.94,0.07l-9.91,0l0,-1.72z" fill="#4d3a30" fill-rule="nonzero" id="path1290"/>
   </g>
   <g id="g1296" transform="translate(44.7494,259.6218)">
    <path d="m0,0c-0.24,0 -0.47,0.01 -0.7,0.01l0,-0.01l0.7,0z" fill="#4d3a30" fill-rule="nonzero" id="path1294"/>
   </g>
   <g id="g1300" transform="translate(32.1927,259.6218)">
    <path d="m0,0l11.86,0l0,0.01c-4.1,0.06 -8.07,0.62 -11.86,1.63l0,-1.64z" fill="#4d3a30" fill-rule="nonzero" id="path1298"/>
   </g>
  </pattern>
 </defs>
 <g class="layer">
  <title>Layer 1</title>
  <g id="g8" transform="translate(34.9587 -192.273) translate(-153.818 -629.256) matrix(1.33333 0 0 -1.33333 0 2666.67)">
   <g id="g10">
    <g clip-path="url(#clipPath16)" id="g12">
     <g id="g18">
      <g id="g20"/>
      <g id="g1308">
       <g clip-path="url(#clipPath24)" id="g1306">
        <path d="m1910.21,617.22l-1820.42,0l0,765.56l1820.42,0l0,-765.56z" fill="url(#pattern1302)" fill-rule="nonzero" id="path1304"/>
       </g>
      </g>
     </g>
    </g>
   </g>
  </g>
  <g id="svg_1" transform="translate(-1 0) translate(-1 0) translate(0 -1) translate(-5.2438 842.504) translate(7.1983 163.357) matrix(1.33333 0 0 -1.33333 -118.859 1845.14)">
   <g id="svg_2">
    <g clip-path="url(#clipPath16)" id="svg_3">
     <g id="svg_4">
      <g id="svg_5"/>
      <g id="svg_6">
       <g clip-path="url(#clipPath24)" id="svg_7">
        <path d="m1910.21,617.22l-1820.42,0l0,765.56l1820.42,0l0,-765.56z" fill="url(#pattern1302)" fill-rule="nonzero" id="svg_8"/>
       </g>
      </g>
     </g>
    </g>
   </g>
  </g>
  <g id="svg_9" transform="translate(1 0) translate(1 0) translate(-1 0) translate(1 0) translate(0 1) translate(1 0) translate(-12.2355 17.4793) translate(307.636 -61.1777) matrix(1.33333 0 0 -1.33333 1994.59 1887.89)">
   <g id="svg_10">
    <g clip-path="url(#clipPath16)" id="svg_11">
     <g id="svg_12">
      <g id="svg_13"/>
      <g id="svg_14">
       <g clip-path="url(#clipPath24)" id="svg_15">
        <path d="m1910.21,617.22l-1820.42,0l0,765.56l1820.42,0l0,-765.56z" fill="url(#pattern1302)" fill-rule="nonzero" id="svg_16"/>
       </g>
      </g>
     </g>
    </g>
   </g>
  </g>
  <g id="svg_17" transform="translate(0 -1) translate(0 1) translate(0 -1) translate(-1 0) translate(-1 0) translate(-1 0) translate(-1 0) translate(-1 0) translate(-1 0) translate(-1 0) translate(0 1) translate(1 0) translate(0 1) translate(1 0) translate(0 -1) translate(0 -1) translate(1 0) translate(0 -1) translate(1 0) translate(0 1) translate(1 0) translate(0 1) translate(1 0) translate(1 0) translate(1 0) translate(1 0) translate(1 0) translate(0 1) translate(0 1) translate(0 1) translate(0 1) translate(396.781 333.855) translate(706.165 903.682) matrix(1.33333 0 0 -1.33333 1185.67 1608.5)">
   <g id="svg_18">
    <g clip-path="url(#clipPath16)" id="svg_19">
     <g id="svg_20">
      <g id="svg_21"/>
      <g id="svg_22">
       <g clip-path="url(#clipPath24)" id="svg_23">
        <path d="m1910.21,617.22l-1820.42,0l0,765.56l1820.42,0l0,-765.56z" fill="url(#pattern1302)" fill-rule="nonzero" id="svg_24"/>
       </g>
      </g>
     </g>
    </g>
   </g>
  </g>
  <g id="svg_25" transform="translate(0 -1) translate(0 -1) translate(0 -1) translate(0 -1) translate(0 -1) translate(1 0) translate(-1 0) translate(1104.69 651.979) translate(-1105.95 358.467) matrix(1.33333 0 0 -1.33333 2291.62 2850.04)">
   <g id="svg_26">
    <g clip-path="url(#clipPath16)" id="svg_27">
     <g id="svg_28">
      <g id="svg_29"/>
      <g id="svg_30">
       <g clip-path="url(#clipPath24)" id="svg_31">
        <path d="m1910.21,617.22l-1820.42,0l0,765.56l1820.42,0l0,-765.56z" fill="url(#pattern1302)" fill-rule="nonzero" id="svg_32"/>
       </g>
      </g>
     </g>
    </g>
   </g>
  </g>
  <g id="svg_33" transform="translate(-1 0) translate(0 -1) translate(0 -1) translate(1 0) translate(1 0) translate(-1 0) translate(-1305.71 648.484) translate(-1104.69 -646.983) matrix(1.33333 0 0 -1.33333 2290.36 3855.49)">
   <g id="svg_34">
    <g clip-path="url(#clipPath16)" id="svg_35">
     <g id="svg_36">
      <g id="svg_37"/>
      <g id="svg_38">
       <g clip-path="url(#clipPath24)" id="svg_39">
        <path d="m1910.21,617.22l-1820.42,0l0,765.56l1820.42,0l0,-765.56z" fill="url(#pattern1302)" fill-rule="nonzero" id="svg_40"/>
       </g>
      </g>
     </g>
    </g>
   </g>
  </g>
 </g>
</svg>